<?xml version="1.0" encoding="iso-8859-1"?>
<!-- Generator: Adobe Illustrator 19.0.0, SVG Export Plug-In . SVG Version: 6.00 Build 0)  -->
<svg version="1.1" id="Layer_1" xmlns="http://www.w3.org/2000/svg" xmlns:xlink="http://www.w3.org/1999/xlink" x="0px" y="0px"
	 viewBox="0 0 512.001 512.001" style="enable-background:new 0 0 512.001 512.001;" xml:space="preserve">
<g>
	<g>
		<g>
			<path d="M462.24,69.784C448.38,28.426,409.334,0,365.343,0c-20.969,0-40.481,6.351-56.721,17.225
				C291.813,5.949,272.345,0,251.935,0c-20.969,0-40.481,6.351-56.721,17.225C178.406,5.949,158.936,0,138.526,0
				C92.655,0,53.746,30.376,40.85,72.068c-16.942,6.287-28.406,22.443-28.406,40.836v355.517c0,24.03,19.549,43.58,43.577,43.58
				h399.958c24.029,0,43.578-19.549,43.578-43.58V112.904C499.555,91.003,483.312,72.831,462.24,69.784z M251.935,16.052
				c15.456,0,30.276,4.042,43.402,11.758c-4.851,4.566-9.257,9.598-13.144,15.026c-9.332-4.778-19.649-7.282-30.258-7.282
				c-36.759,0-66.665,29.905-66.665,66.664c0,17.805,6.934,34.546,19.527,47.14c1.842,1.842,2.855,4.29,2.855,6.894
				s-1.014,5.052-2.856,6.893c-1.842,1.843-4.289,2.856-6.893,2.856c-2.605,0-5.053-1.015-6.895-2.856
				c-16.273-16.276-25.236-37.914-25.236-60.928C165.77,54.705,204.424,16.052,251.935,16.052z M264.522,85.379
				c-0.913,5.48-1.394,11.104-1.394,16.837c0,6.944,0.691,13.782,2.034,20.437h-59.543c-2.807-6.357-4.297-13.28-4.297-20.437
				c0-5.903,1.025-11.567,2.891-16.837H264.522z M213.513,69.327c0.998-1.165,2.047-2.285,3.146-3.355
				c0.515,1.108,1.002,2.227,1.469,3.355H213.513z M235.276,69.328v-0.001c-1.481-4.346-3.256-8.587-5.313-12.698
				c6.649-3.218,14.103-5.023,21.972-5.023c7.667,0,15.135,1.721,21.944,5.017c-2.046,4.088-3.831,8.329-5.323,12.706H235.276z
				 M138.526,16.052c15.456,0,30.277,4.042,43.402,11.758c-4.851,4.566-9.257,9.598-13.144,15.026
				c-9.331-4.778-19.649-7.282-30.258-7.282c-36.759,0-66.664,29.905-66.664,66.664c0,17.806,6.934,34.546,19.526,47.14
				c1.842,1.842,2.856,4.29,2.855,6.894c0,2.604-1.014,5.052-2.856,6.893c-1.842,1.843-4.289,2.856-6.893,2.856
				c-2.605,0-5.053-1.015-6.895-2.856c-16.274-16.276-25.236-37.914-25.236-60.928C52.362,54.705,91.016,16.052,138.526,16.052z
				 M151.754,122.654H92.211c-2.807-6.357-4.297-13.28-4.297-20.437c0-5.903,1.026-11.567,2.891-16.837h60.308
				c-0.913,5.48-1.394,11.104-1.394,16.837C149.719,109.162,150.41,115.999,151.754,122.654z M100.105,69.327
				c9.29-10.836,23.062-17.722,38.421-17.722c7.669,0,15.135,1.721,21.944,5.017c-2.046,4.088-3.831,8.329-5.323,12.706H100.105z
				 M48.049,149.874c4.732,8.957,10.831,17.254,18.198,24.622c4.874,4.873,11.354,7.558,18.246,7.558
				c6.891,0,13.37-2.684,18.242-7.556c4.873-4.873,7.558-11.351,7.558-18.244c0.001-6.569-2.442-12.76-6.891-17.546h52.995
				c5.062,13.27,12.912,25.442,23.256,35.788c4.874,4.873,11.354,7.558,18.246,7.558c6.891,0,13.37-2.684,18.242-7.556
				c4.873-4.873,7.558-11.351,7.558-18.244c0.001-6.57-2.442-12.76-6.891-17.546h52.994c5.063,13.27,12.913,25.442,23.257,35.788
				c4.874,4.874,11.354,7.558,18.245,7.558c6.892,0,13.371-2.684,18.244-7.556c4.874-4.873,7.559-11.351,7.559-18.244
				c0.001-6.57-2.442-12.76-6.891-17.546h21.742v62.162H48.049V149.874z M48.049,216.919h303.913V442.62H48.049V216.919z
				 M439.065,468.421c0,15.179-12.348,27.528-27.526,27.528H56.021c-15.178,0-27.525-12.349-27.525-27.528V112.904
				c-0.001-7.573,3.095-14.533,8.205-19.573c-0.254,2.929-0.391,5.892-0.391,8.886c0,7.003,0.704,13.898,2.071,20.606
				c-3.645,0.758-6.383,3.987-6.383,7.857v319.966c0,4.434,3.594,8.026,8.026,8.026h353.74c4.432,0,8.026-3.592,8.026-8.026V130.68
				c0-4.434-3.594-8.026-8.026-8.026h-74.735c-2.808-6.358-4.298-13.28-4.298-20.437c0-5.903,1.025-11.567,2.891-16.837h93.917
				c15.178,0,27.526,12.347,27.526,27.525V468.421z M385.737,216.919V442.62h-17.721V216.919H385.737z M368.015,200.867v-62.162
				h17.721v62.162H368.015z M326.922,69.327c0.998-1.164,2.047-2.285,3.146-3.354c0.515,1.107,1.001,2.226,1.468,3.354H326.922z
				 M343.371,56.629c6.649-3.218,14.103-5.023,21.972-5.023c14.895,0,28.9,6.68,38.401,17.722h-55.059
				C347.204,64.983,345.428,60.742,343.371,56.629z M423.297,69.325v0.002c-11.782-20.672-33.992-33.774-57.953-33.774
				c-36.759,0-66.664,29.905-66.664,66.664c0,17.804,6.934,34.545,19.526,47.14c1.842,1.842,2.856,4.29,2.855,6.894
				c0,2.604-1.014,5.052-2.857,6.894c-1.841,1.842-4.289,2.855-6.893,2.855s-5.053-1.014-6.895-2.856
				c-16.273-16.276-25.236-37.914-25.236-60.928c0-47.512,38.653-86.166,86.165-86.166c35.08,0,66.442,21.44,79.619,53.275H423.297z
				 M483.504,468.421c0,15.179-12.348,27.528-27.526,27.528h-10.686c6.136-7.51,9.825-17.095,9.825-27.528V112.904
				c0-10.431-3.688-20.015-9.824-27.525h10.685c15.178,0,27.526,12.347,27.526,27.525V468.421z"/>
			<path d="M204.562,284.333c-5.742,0-10.412,0.409-14.529,1.039l0.827-12.515h52.089c13.896,0,25.199-11.19,25.199-24.946
				c0-13.895-11.304-25.2-25.199-25.2h-76.774c-13.388,0-24.452,10.656-25.185,24.221l-3.531,59.79
				c-0.708,9.494,2.891,17.351,10.433,22.738c7.432,5.277,13.796,9.312,22.325,9.312c3.138,0,6.038-0.853,9.108-1.756
				c4.226-1.243,9.486-2.79,17.663-2.79c5.463,0,23.29,1.151,23.29,15.965v0.506c0,15.284-15.701,16.472-20.513,16.472
				c-10.656,0-19.285-2.934-28.838-9.81c-4.719-3.521-9.459-5.092-15.358-5.092c-7.043,0-13.696,2.827-18.734,7.96
				c-4.984,5.078-7.728,11.738-7.728,18.754c0,8.608,3.962,16.21,11.19,21.432c17.348,12.392,36.485,18.163,60.226,18.163
				c44.226,0,73.942-27.786,73.942-69.141v-0.506C274.462,308.483,248.331,284.333,204.562,284.333z M258.41,349.437
				c0,32.25-22.723,53.089-57.89,53.089c-20.509,0-36.206-4.68-50.861-15.148c-2.988-2.158-4.503-4.983-4.503-8.395
				c0-5.78,4.767-10.663,10.41-10.663c2.72,0,4.085,0.65,5.793,1.931c0.041,0.03,0.081,0.06,0.122,0.09
				c12.189,8.788,24.353,12.881,38.282,12.881c21.87,0,36.565-13.071,36.565-32.524v-0.506c0-19.151-15.81-32.017-39.342-32.017
				c-10.488,0-17.531,2.072-22.191,3.443c-1.845,0.543-3.753,1.103-4.579,1.103c-2.827,0-5.381-0.916-13.014-6.335
				c-2.916-2.084-4.033-4.628-3.734-8.51c0.003-0.047,0.006-0.095,0.01-0.142l3.538-59.895c0.279-5.174,4.217-9.076,9.159-9.076
				h76.774c4.873,0,9.147,4.275,9.147,9.148c0,4.821-4.188,8.894-9.147,8.894h-59.602c-4.227,0-7.73,3.278-8.009,7.496l-2.02,30.561
				c-0.169,2.561,0.895,5.046,2.864,6.69c1.969,1.644,4.606,2.253,7.093,1.625c6.105-1.527,11.92-2.791,21.287-2.791
				c16.327,0,29.78,3.973,38.904,11.49c9.917,8.17,14.944,20.637,14.944,37.055v0.505H258.41z"/>
		</g>
	</g>
</g>
<g>
</g>
<g>
</g>
<g>
</g>
<g>
</g>
<g>
</g>
<g>
</g>
<g>
</g>
<g>
</g>
<g>
</g>
<g>
</g>
<g>
</g>
<g>
</g>
<g>
</g>
<g>
</g>
<g>
</g>
</svg>
