<?xml version="1.0" encoding="iso-8859-1"?>
<!-- Generator: Adobe Illustrator 19.0.0, SVG Export Plug-In . SVG Version: 6.00 Build 0)  -->
<svg version="1.1" id="Layer_1" xmlns="http://www.w3.org/2000/svg" xmlns:xlink="http://www.w3.org/1999/xlink" x="0px" y="0px"
	 viewBox="0 0 512 512" style="enable-background:new 0 0 512 512;" xml:space="preserve">
<g>
	<g>
		<path d="M441.828,406.109V128c0-4.655-2.327-8.145-5.818-10.473s-8.145-2.327-11.636,0l-5.818,4.655V69.818
			c0-6.982-4.655-11.636-11.636-11.636h-58.182V11.636C348.737,4.655,344.083,0,337.101,0h-46.545H174.192
			c-6.982,0-11.636,4.655-11.636,11.636v58.182c-32.582,0-60.509,23.273-67.491,53.527l-6.982-4.655
			c-3.491-2.327-8.145-2.327-11.636,0c-4.655,1.164-6.982,4.655-6.982,9.309v279.273c0,6.982,4.655,11.636,11.636,11.636h302.545
			c6.982,0,11.636-4.655,11.636-11.636c0-6.982-4.655-11.636-11.636-11.636H92.737V150.109l16.291,11.636
			c3.491,2.327,9.309,2.327,12.8,0l27.927-18.618l27.927,18.618c2.327,1.164,4.655,2.327,6.982,2.327s4.655-1.164,6.982-2.327
			l27.927-18.618l27.927,18.618c2.327,1.164,4.655,2.327,6.982,2.327c2.327,0,4.655-1.164,6.982-2.327l27.927-18.618l27.927,18.618
			c3.491,2.327,9.309,2.327,12.8,0l27.927-18.618l27.927,18.618c3.491,2.327,9.309,2.327,12.8,0l16.291-11.636v257.164
			c0,1.164,0,2.327,0,2.327l19.782,79.127H72.955l8.145-32.582c1.164-5.818-2.327-12.8-8.145-13.964
			c-5.818-1.164-12.8,2.327-13.964,8.145l-11.636,46.545c-1.164,3.491,0,6.982,2.327,10.473c2.327,3.491,4.655,4.654,8.145,4.654
			h395.636c3.491,0,6.982-1.164,9.309-4.655c2.327-3.491,2.327-5.818,2.327-9.309L441.828,406.109z M185.828,137.309l-27.927-18.618
			c-1.164-1.164-2.327-1.164-4.655-1.164c-1.164,0-1.164,0-2.327,0s-1.164,0-2.327,0s-3.491,1.164-4.655,1.164l-27.927,18.618
			c1.164-24.436,22.109-44.218,46.545-44.218c19.782,0,37.236,12.8,44.218,30.255L185.828,137.309z M278.919,122.182l-23.273,15.127
			l-26.764-17.455c-6.982-20.945-23.273-38.4-43.055-45.382v-51.2h93.091V122.182z M325.465,69.818v67.491l-23.273-15.127V23.273
			h23.273V69.818z M395.283,137.309l-27.927-18.618c-3.491-2.327-9.309-2.327-12.8,0l-5.818,3.491V81.455h46.545V137.309z"/>
	</g>
</g>
<g>
</g>
<g>
</g>
<g>
</g>
<g>
</g>
<g>
</g>
<g>
</g>
<g>
</g>
<g>
</g>
<g>
</g>
<g>
</g>
<g>
</g>
<g>
</g>
<g>
</g>
<g>
</g>
<g>
</g>
</svg>
