<svg version="1.1" id="Uploaded to svgrepo.com" xmlns="http://www.w3.org/2000/svg" xmlns:xlink="http://www.w3.org/1999/xlink" x="0px" y="0px"
	 width="32px" height="32px" viewBox="0 0 32 32" style="enable-background:new 0 0 32 32;" xml:space="preserve">
<style type="text/css">
	.sharpcorners_een{fill:#111918;}
	.st0{fill:#0B1719;}
</style>
<path class="sharpcorners_een" d="M2,2v5h28V2H2z M5,5H4V4h1V5z M7,5H6V4h1V5z M9,5H8V4h1V5z M2,30h28V8H2V30z M13,11h6v1h-6V11z
	 M6,14h20v11H6V14z M21,21h4v1H7v-1h4v-2h-1v-1h12v1h-1V21z"/>
</svg>