<svg width="50" height="50" viewBox="0 0 50 50" fill="none" xmlns="http://www.w3.org/2000/svg">
<g id="icon-calendar">
<g id="board">
<path id="Rectangle 1" d="M3 8C3 6.89543 3.89543 6 5 6H45C46.1046 6 47 6.89543 47 8V45C47 47.2091 45.2091 49 43 49H7C4.79086 49 3 47.2091 3 45V8Z" fill="#433E3E"/>
<rect id="Rectangle 2" x="10" y="13" width="30" height="29" rx="3" fill="white"/>
<path id="Rectangle 3" d="M6 4C6 2.89543 6.89543 2 8 2H9C10.1046 2 11 2.89543 11 4V6H6V4Z" fill="#433E3E"/>
<path id="Rectangle 7" d="M22 4C22 2.89543 22.8954 2 24 2H25C26.1046 2 27 2.89543 27 4V6H22V4Z" fill="#433E3E"/>
<path id="Rectangle 6" d="M31 4C31 2.89543 31.8954 2 33 2H34C35.1046 2 36 2.89543 36 4V6H31V4Z" fill="#433E3E"/>
<path id="Rectangle 5" d="M14 4C14 2.89543 14.8954 2 16 2H17C18.1046 2 19 2.89543 19 4V6H14V4Z" fill="#433E3E"/>
<path id="Rectangle 4" d="M39 4C39 2.89543 39.8954 2 41 2H42C43.1046 2 44 2.89543 44 4V6H39V4Z" fill="#433E3E"/>
</g>
<path id="number" d="M24.1729 33.3672V35H13.9355V33.5713L19.0596 27.8672C19.6898 27.1654 20.1768 26.571 20.5205 26.084C20.8714 25.5898 21.1149 25.1494 21.251 24.7627C21.3942 24.3688 21.4658 23.9678 21.4658 23.5596C21.4658 23.0439 21.3584 22.5785 21.1436 22.1631C20.9359 21.7406 20.6279 21.404 20.2197 21.1533C19.8115 20.9027 19.3174 20.7773 18.7373 20.7773C18.0426 20.7773 17.4626 20.9134 16.9971 21.1855C16.5387 21.4505 16.195 21.8229 15.9658 22.3027C15.7367 22.7826 15.6221 23.334 15.6221 23.957H13.6348C13.6348 23.0762 13.8281 22.2705 14.2148 21.54C14.6016 20.8096 15.1745 20.2295 15.9336 19.7998C16.6927 19.363 17.6273 19.1445 18.7373 19.1445C19.7256 19.1445 20.5706 19.32 21.2725 19.6709C21.9743 20.0146 22.5114 20.5016 22.8838 21.1318C23.2633 21.7549 23.4531 22.4854 23.4531 23.3232C23.4531 23.7816 23.3743 24.2471 23.2168 24.7197C23.0664 25.1852 22.8551 25.6507 22.583 26.1162C22.318 26.5817 22.0065 27.04 21.6484 27.4912C21.2975 27.9424 20.9215 28.3864 20.5205 28.8232L16.3311 33.3672H24.1729ZM36.8701 29.7363V31.3691H25.5693V30.1982L32.5732 19.3594H34.1953L32.4551 22.4961L27.8252 29.7363H36.8701ZM34.6895 19.3594V35H32.7021V19.3594H34.6895Z" fill="#433E3E"/>
</g>
</svg>
