<svg width="50" height="50" viewBox="0 0 50 50" fill="none" xmlns="http://www.w3.org/2000/svg">
<g id="icon-list">
<path id="board-group" fill-rule="evenodd" clip-rule="evenodd" d="M32 7C32 3.13401 28.866 0 25 0C21.134 0 18 3.13401 18 7H7C4.79086 7 3 8.79086 3 11V45C3 47.2091 4.79086 49 7 49H43C45.2091 49 47 47.2091 47 45V11C47 8.79086 45.2091 7 43 7H32ZM28 6C28 7.65685 26.6569 9 25 9C23.3431 9 22 7.65685 22 6C22 4.34315 23.3431 3 25 3C26.6569 3 28 4.34315 28 6ZM9 16H12.5556V20H9V16ZM15.2222 16H41V20H15.2222V16ZM41 24H15.2222V28H41V24ZM15.2222 32H41V36H15.2222V32ZM12.5556 32H9V36H12.5556V32ZM9 24H12.5556V28H9V24Z" fill="#433E3E"/>
</g>
</svg>
