<svg width="300" height="50" viewBox="0 0 300 50" fill="none" xmlns="http://www.w3.org/2000/svg">
<style>
</style>
<g id="graphic-data">
<rect id="base" x="2" y="2" width="296" height="46" rx="5" fill="#605D82"/>
<g id="bars">
<rect id="base_2" x="242" y="45" width="3.80952" height="38" transform="rotate(-90 242 45)" fill="#B6F477"/>
<g id="bar-group">
<rect id="Rectangle 4" x="250" y="39.127" width="5" height="34.127" transform="rotate(-180 250 39.127)" fill="#B6F477"/>
<rect id="Rectangle 5" x="259" y="39.127" width="5" height="24.5014" transform="rotate(-180 259 39.127)" fill="#B6F477"/>
<rect id="Rectangle 6" x="268" y="39.127" width="5" height="28.0016" transform="rotate(-180 268 39.127)" fill="#B6F477"/>
<rect id="Rectangle 7" x="277" y="39.127" width="5" height="16.626" transform="rotate(-180 277 39.127)" fill="#B6F477"/>
</g>
</g>
<g id="fillbar">
<rect id="barback" width="12" height="40" transform="matrix(1 0 0 -1 32 45)" fill="white"/>
<rect id="barfill" width="12" height="40" transform="matrix(1 0 0 -1 32 45)" fill="#F8B95C"/>
</g>
<g id="fillbar">
<rect id="barback" width="12" height="40" transform="matrix(1 0 0 -1 14 45)" fill="white"/>
<rect id="barfill" width="12" height="40" transform="matrix(1 0 0 -1 14 45)" fill="#F8B95C"/>
</g>
<g id="pyramid">
<path id="Rectangle" d="M152.686 38L157.143 34H212.857L218.429 39L224 44H146L152.686 38Z" fill="#D250E8"/>
<path id="Rectangle_2" d="M163.457 27.2L166.429 24H203.571L207.286 28L211 32H159L163.457 27.2Z" fill="#DD70EF"/>
<path id="Rectangle_3" d="M175.886 11.6L177.143 10H192.857L194.429 12L196 14H174L175.886 11.6Z" fill="#ECC1F3"/>
<path id="Rectangle_4" d="M170.914 18.4L172.857 16H197.143L199.571 19L202 22H168L170.914 18.4Z" fill="#EDA8F9"/>
<path id="Rectangle_5" d="M179.462 8.76923L185 6L190.538 8.76923L193 10H177L179.462 8.76923Z" fill="#FFE7FE"/>
</g>
<path id="89%" d="M62.5483 32.179C61.6705 32.179 60.8949 32.0234 60.2216 31.7124C59.5526 31.397 59.0305 30.9645 58.6555 30.4148C58.2805 29.8608 58.0952 29.2301 58.0994 28.5227C58.0952 27.9687 58.2038 27.4574 58.4254 26.9886C58.647 26.5156 58.9496 26.1214 59.3331 25.8061C59.7209 25.4865 60.1534 25.2841 60.6307 25.1989V25.1222C60.0043 24.9602 59.5057 24.6087 59.1349 24.0675C58.7642 23.522 58.581 22.902 58.5852 22.2074C58.581 21.5426 58.7493 20.9482 59.0902 20.424C59.4311 19.8999 59.8999 19.4865 60.4964 19.1839C61.0973 18.8814 61.7813 18.7301 62.5483 18.7301C63.3068 18.7301 63.9844 18.8814 64.581 19.1839C65.1776 19.4865 65.6463 19.8999 65.9872 20.424C66.3324 20.9482 66.5071 21.5426 66.5114 22.2074C66.5071 22.902 66.3175 23.522 65.9425 24.0675C65.5717 24.6087 65.0795 24.9602 64.4659 25.1222V25.1989C64.9389 25.2841 65.3651 25.4865 65.7443 25.8061C66.1236 26.1214 66.4261 26.5156 66.652 26.9886C66.8778 27.4574 66.9929 27.9687 66.9972 28.5227C66.9929 29.2301 66.8011 29.8608 66.4219 30.4148C66.0469 30.9645 65.5249 31.397 64.8558 31.7124C64.1911 32.0234 63.4219 32.179 62.5483 32.179ZM62.5483 30.7727C63.1406 30.7727 63.652 30.6768 64.0824 30.4851C64.5128 30.2933 64.8452 30.0227 65.0795 29.6733C65.3139 29.3239 65.4332 28.9148 65.4375 28.446C65.4332 27.9517 65.3054 27.5149 65.054 27.1357C64.8026 26.7564 64.4595 26.4581 64.0249 26.2408C63.5945 26.0234 63.1023 25.9148 62.5483 25.9148C61.9901 25.9148 61.4915 26.0234 61.0526 26.2408C60.6179 26.4581 60.2749 26.7564 60.0234 27.1357C59.7763 27.5149 59.6548 27.9517 59.6591 28.446C59.6548 28.9148 59.7678 29.3239 59.9979 29.6733C60.2322 30.0227 60.5668 30.2933 61.0014 30.4851C61.4361 30.6768 61.9517 30.7727 62.5483 30.7727ZM62.5483 24.5597C63.017 24.5597 63.4325 24.4659 63.7947 24.2784C64.1612 24.0909 64.4489 23.8288 64.6577 23.4922C64.8665 23.1555 64.973 22.7614 64.9773 22.3097C64.973 21.8665 64.8686 21.4808 64.6641 21.1527C64.4595 20.8203 64.1761 20.5646 63.8139 20.3857C63.4517 20.2024 63.0298 20.1108 62.5483 20.1108C62.0582 20.1108 61.63 20.2024 61.2635 20.3857C60.897 20.5646 60.6136 20.8203 60.4134 21.1527C60.2131 21.4808 60.1151 21.8665 60.1193 22.3097C60.1151 22.7614 60.2152 23.1555 60.4197 23.4922C60.6286 23.8288 60.9162 24.0909 61.2827 24.2784C61.6491 24.4659 62.071 24.5597 62.5483 24.5597ZM73.6145 18.7301C74.1515 18.7344 74.6884 18.8366 75.2253 19.0369C75.7623 19.2372 76.2523 19.5696 76.6955 20.0341C77.1387 20.4943 77.4945 21.1229 77.763 21.9197C78.0314 22.7166 78.1657 23.7159 78.1657 24.9176C78.1657 26.081 78.0549 27.1143 77.8333 28.0178C77.6159 28.9169 77.3006 29.6754 76.8873 30.2933C76.4782 30.9112 75.9796 31.38 75.3915 31.6996C74.8077 32.0192 74.1472 32.179 73.41 32.179C72.677 32.179 72.0229 32.0341 71.4476 31.7443C70.8766 31.4503 70.4078 31.0433 70.0414 30.5234C69.6792 29.9993 69.4469 29.392 69.3446 28.7017H70.9043C71.0449 29.3026 71.324 29.799 71.7417 30.1911C72.1635 30.5788 72.7196 30.7727 73.41 30.7727C74.4199 30.7727 75.2168 30.3317 75.8006 29.4496C76.3887 28.5675 76.6827 27.321 76.6827 25.7102H76.5804C76.3418 26.0682 76.0584 26.3771 75.7303 26.6371C75.4022 26.897 75.0378 27.0973 74.6373 27.2379C74.2367 27.3786 73.8105 27.4489 73.3588 27.4489C72.6088 27.4489 71.9206 27.2635 71.2942 26.8928C70.6721 26.5178 70.1735 26.0043 69.7985 25.3523C69.4277 24.696 69.2424 23.946 69.2424 23.1023C69.2424 22.3011 69.4213 21.5682 69.7793 20.9034C70.1415 20.2344 70.6486 19.7017 71.3006 19.3054C71.9569 18.9091 72.7282 18.7173 73.6145 18.7301ZM73.6145 20.1364C73.0776 20.1364 72.5939 20.2706 72.1635 20.5391C71.7374 20.8033 71.3986 21.1612 71.1472 21.6129C70.9 22.0604 70.7765 22.5568 70.7765 23.1023C70.7765 23.6477 70.8958 24.1442 71.1344 24.5916C71.3773 25.0348 71.7076 25.3885 72.1252 25.6527C72.5471 25.9126 73.0265 26.0426 73.5634 26.0426C73.9682 26.0426 74.3453 25.9638 74.6948 25.8061C75.0442 25.6442 75.3489 25.4247 75.6088 25.1477C75.873 24.8665 76.0797 24.549 76.2289 24.1953C76.378 23.8374 76.4526 23.4645 76.4526 23.0767C76.4526 22.5653 76.329 22.0859 76.0819 21.6385C75.839 21.1911 75.5023 20.8288 75.0719 20.5518C74.6458 20.2749 74.16 20.1364 73.6145 20.1364ZM87.3526 29.5455V28.8551C87.3526 28.3778 87.4506 27.9411 87.6467 27.5447C87.8469 27.1442 88.1367 26.8246 88.516 26.5859C88.8995 26.343 89.364 26.2216 89.9094 26.2216C90.4634 26.2216 90.9279 26.343 91.3029 26.5859C91.6779 26.8246 91.9613 27.1442 92.1531 27.5447C92.3448 27.9411 92.4407 28.3778 92.4407 28.8551V29.5455C92.4407 30.0227 92.3427 30.4616 92.1467 30.8622C91.9549 31.2585 91.6694 31.5781 91.2901 31.821C90.9151 32.0597 90.4549 32.179 89.9094 32.179C89.3555 32.179 88.8888 32.0597 88.5096 31.821C88.1303 31.5781 87.8427 31.2585 87.6467 30.8622C87.4506 30.4616 87.3526 30.0227 87.3526 29.5455ZM88.6566 28.8551V29.5455C88.6566 29.9418 88.7504 30.2976 88.9379 30.6129C89.1254 30.924 89.4492 31.0795 89.9094 31.0795C90.3569 31.0795 90.6722 30.924 90.8555 30.6129C91.043 30.2976 91.1367 29.9418 91.1367 29.5455V28.8551C91.1367 28.4588 91.0472 28.1051 90.8683 27.794C90.6893 27.4787 90.3697 27.321 89.9094 27.321C89.462 27.321 89.1403 27.4787 88.9442 27.794C88.7525 28.1051 88.6566 28.4588 88.6566 28.8551ZM80.8327 22.054V21.3636C80.8327 20.8864 80.9308 20.4496 81.1268 20.0533C81.3271 19.6527 81.6168 19.3331 81.9961 19.0945C82.3796 18.8516 82.8441 18.7301 83.3896 18.7301C83.9435 18.7301 84.408 18.8516 84.783 19.0945C85.158 19.3331 85.4414 19.6527 85.6332 20.0533C85.8249 20.4496 85.9208 20.8864 85.9208 21.3636V22.054C85.9208 22.5312 85.8228 22.9702 85.6268 23.3707C85.435 23.767 85.1495 24.0866 84.7702 24.3295C84.3952 24.5682 83.935 24.6875 83.3896 24.6875C82.8356 24.6875 82.369 24.5682 81.9897 24.3295C81.6104 24.0866 81.3228 23.767 81.1268 23.3707C80.9308 22.9702 80.8327 22.5312 80.8327 22.054ZM82.1367 21.3636V22.054C82.1367 22.4503 82.2305 22.8061 82.418 23.1214C82.6055 23.4325 82.9293 23.5881 83.3896 23.5881C83.837 23.5881 84.1523 23.4325 84.3356 23.1214C84.5231 22.8061 84.6168 22.4503 84.6168 22.054V21.3636C84.6168 20.9673 84.5273 20.6136 84.3484 20.3026C84.1694 19.9872 83.8498 19.8295 83.3896 19.8295C82.9421 19.8295 82.6204 19.9872 82.4244 20.3026C82.2326 20.6136 82.1367 20.9673 82.1367 21.3636ZM81.3185 32L90.3185 18.9091H91.7759L82.7759 32H81.3185Z" fill="white"/>
<g id="dial">
<g id="Ellipse 1" filter="url(#filter0_i_1_2)">
<circle cx="120.5" cy="25.5" r="16.5" fill="white"/>
</g>
<circle id="Ellipse 2" cx="120.5" cy="25.5" r="12.5" fill="#605D82"/>
<rect id="Rectangle 8" x="117" y="9" width="7" height="5" fill="#605D82"/>
</g>
</g>
<defs>
<filter id="filter0_i_1_2" x="104" y="9" width="33" height="33" filterUnits="userSpaceOnUse" color-interpolation-filters="sRGB">
<feFlood flood-opacity="0" result="BackgroundImageFix"/>
<feBlend mode="normal" in="SourceGraphic" in2="BackgroundImageFix" result="shape"/>
<feColorMatrix in="SourceAlpha" type="matrix" values="0 0 0 0 0 0 0 0 0 0 0 0 0 0 0 0 0 0 127 0" result="hardAlpha"/>
<feOffset dx="7.7"/>
<feComposite in2="hardAlpha" operator="arithmetic" k2="-1" k3="1"/>
<feColorMatrix type="matrix" values="0 0 0 0 0.479375 0 0 0 0 0.885788 0 0 0 0 0.975 0 0 0 1 0"/>
<feBlend mode="normal" in2="shape" result="effect1_innerShadow_1_2"/>
</filter>
</defs>
</svg>
