<svg width="50" height="50" viewBox="0 0 50 50" fill="none" xmlns="http://www.w3.org/2000/svg">
<g id="icon-edit" clip-path="url(#clip0_0_3)">
<g id="icon">
<path id="Rectangle 1" d="M6.77817 1.12132C7.94975 -0.0502523 9.84924 -0.0502524 11.0208 1.12132L13.2968 3.39726C13.6873 3.78778 13.6873 4.42095 13.2968 4.81147L4.81147 13.2968C4.42095 13.6873 3.78778 13.6873 3.39726 13.2968L1.12132 11.0208C-0.0502528 9.84924 -0.0502531 7.94975 1.12132 6.77817L6.77817 1.12132Z" fill="#433E3E"/>
<path id="Rectangle 2" d="M14.5015 6.01363C14.8915 5.62362 15.5237 5.62304 15.9144 6.01233L41.3349 31.3394C41.8798 31.8823 41.6334 32.8114 40.8911 33.0129L34.6949 34.6949L33.0129 40.8911C32.8114 41.6334 31.8823 41.8798 31.3394 41.3349L6.01233 15.9144C5.62304 15.5237 5.62362 14.8915 6.01363 14.5015L14.5015 6.01363Z" fill="#433E3E"/>
<path id="Polygon 1" d="M43.0724 35.1193L45.7762 46.2452L34.5371 43.2024L36.5959 36.5159L43.0724 35.1193Z" stroke="#433E3E" stroke-width="2"/>
</g>
</g>
<defs>
<clipPath id="clip0_0_3">
<rect width="50" height="50" fill="white"/>
</clipPath>
</defs>
</svg>
