<svg width="50" height="50" viewBox="0 0 50 50" fill="none" xmlns="http://www.w3.org/2000/svg">
<g id="icon-trash">
<g id="icon" fill="#d15454">
<path id="Rectangle 2" d="M6 8.82643C6 7.79202 6.78877 6.92829 7.81893 6.83464L17 6H25H33L42.1811 6.83464C43.2112 6.92829 44 7.79202 44 8.82643V10C44 11.1046 43.1046 12 42 12H8C6.89543 12 6 11.1046 6 10V8.82643Z"/>
<path id="Subtract" fill-rule="evenodd" clip-rule="evenodd" d="M9.18166 14C7.45554 14 6.08547 15.453 6.18683 17.1762L7.83389 45.1762C7.92717 46.7619 9.24029 48 10.8287 48H38.7125C40.284 48 41.5892 46.7873 41.7044 45.22L43.7632 17.22C43.8911 15.4812 42.5148 14 40.7713 14H9.18166ZM23 41C23 42.1046 23.8954 43 25 43C26.1046 43 27 42.1046 27 41V21C27 19.8954 26.1046 19 25 19C23.8954 19 23 19.8954 23 21V41ZM16.2094 42.9982C15.105 43.0174 14.1941 42.1378 14.1748 41.0334L13.8258 21.0364C13.8065 19.932 14.6862 19.0211 15.7906 19.0018C16.895 18.9825 17.8059 19.8622 17.8252 20.9666L18.1742 40.9636C18.1935 42.068 17.3138 42.9789 16.2094 42.9982ZM31.8258 40.9636C31.8065 42.068 32.6862 42.9789 33.7906 42.9982C34.895 43.0175 35.8059 42.1378 35.8252 41.0334L36.1742 21.0364C36.1935 19.932 35.3138 19.0211 34.2094 19.0018C33.105 18.9826 32.1941 19.8622 32.1748 20.9666L31.8258 40.9636Z" />
<path id="Subtract_2" fill-rule="evenodd" clip-rule="evenodd" d="M19 2C17.8954 2 17 2.89543 17 4V6H19C19 4.89543 19.8954 4 21 4H29C30.1046 4 31 4.89543 31 6H33V4C33 2.89543 32.1046 2 31 2H19Z" />
</g>
</g>
</svg>
