<svg width="50" height="50" viewBox="0 0 50 50" fill="none" xmlns="http://www.w3.org/2000/svg">
<g id="icon-search">
<path id="handle" d="M19.3449 24.5372L25.0017 30.1941L7.77818 47.4176C6.6066 48.5892 4.70711 48.5892 3.53554 47.4176L2.12132 46.0034C0.949749 44.8319 0.949749 42.9324 2.12132 41.7608L19.3449 24.5372Z" fill="#433E3E"/>
<path id="top" fill-rule="evenodd" clip-rule="evenodd" d="M32 36C41.9411 36 50 27.9411 50 18C50 8.05887 41.9411 0 32 0C22.0589 0 14 8.05887 14 18C14 27.9411 22.0589 36 32 36ZM32 29C38.0751 29 43 24.0751 43 18C43 11.9249 38.0751 7 32 7C25.9249 7 21 11.9249 21 18C21 24.0751 25.9249 29 32 29Z" fill="#433E3E"/>
</g>
</svg>
