<svg width="50" height="50" viewBox="0 0 50 50" fill="none" xmlns="http://www.w3.org/2000/svg">
<g id="icon-cog">
<g id="icon">
<g id="cog">
<path id="Subtract" fill-rule="evenodd" clip-rule="evenodd" d="M25 42.8889C34.8798 42.8889 42.8889 34.8798 42.8889 25C42.8889 15.1202 34.8798 7.11111 25 7.11111C15.1202 7.11111 7.11111 15.1202 7.11111 25C7.11111 34.8798 15.1202 42.8889 25 42.8889ZM25 33C29.4183 33 33 29.4183 33 25C33 20.5817 29.4183 17 25 17C20.5817 17 17 20.5817 17 25C17 29.4183 20.5817 33 25 33Z" fill="#433E3E"/>
<path id="Rectangle 2" d="M49 21.8V28.2L42 29V21L49 21.8Z" fill="#433E3E"/>
<path id="Rectangle 1" d="M21.8 1H28.2L29 8H21L21.8 1Z" fill="#433E3E"/>
</g>
<path id="Rectangle 3" d="M5.56569 10.0912L10.0912 5.56569L15.6066 9.94975L9.94975 15.6066L5.56569 10.0912Z" fill="#433E3E"/>
<path id="Rectangle 4" d="M44.0409 39.5154L39.5154 44.0409L34 39.6569L39.6569 34L44.0409 39.5154Z" fill="#433E3E"/>
<path id="Rectangle 5" d="M5.56569 39.5154L10.0912 44.0409L15.6066 39.6569L9.94975 34L5.56569 39.5154Z" fill="#433E3E"/>
<path id="Rectangle 6" d="M44.0409 10.0912L39.5154 5.56569L34 9.94975L39.6569 15.6066L44.0409 10.0912Z" fill="#433E3E"/>
<path id="Rectangle 1_2" d="M21.8 49H28.2L29 42H21L21.8 49Z" fill="#433E3E"/>
<path id="Rectangle 2_2" d="M1 28.2L1 21.8L8 21V29L1 28.2Z" fill="#433E3E"/>
</g>
</g>
</svg>
