<svg width="50" height="50" viewBox="0 0 50 50" fill="none" xmlns="http://www.w3.org/2000/svg">
<g id="icon-list">
<path id="icon" fill-rule="evenodd" clip-rule="evenodd" d="M32 7C32 3.13401 28.866 0 25 0C21.134 0 18 3.13401 18 7H7C4.79086 7 3 8.79086 3 11V45C3 47.2091 4.79086 49 7 49H43C45.2091 49 47 47.2091 47 45V11C47 8.79086 45.2091 7 43 7H32ZM28 6C28 7.65685 26.6569 9 25 9C23.3431 9 22 7.65685 22 6C22 4.34315 23.3431 3 25 3C26.6569 3 28 4.34315 28 6ZM10 16H13.3333V20H10V16ZM15.8333 16H40V20H15.8333V16ZM40 24H15.8333V28H40V24ZM15.8333 32H40V36H15.8333V32ZM13.3333 32H10V36H13.3333V32ZM10 24H13.3333V28H10V24Z" fill="#433E3E"/>
</g>
</svg>
