<svg width="50" height="50" viewBox="0 0 50 50" fill="none" xmlns="http://www.w3.org/2000/svg">
<g id="icon-list">
<path id="icon" fill-rule="evenodd" clip-rule="evenodd" d="M32 7C32 3.13401 28.866 0 25 0C21.134 0 18 3.13401 18 7H9C5.68629 7 3 9.68629 3 13V43C3 46.3137 5.68629 49 9 49H41C44.3137 49 47 46.3137 47 43V13C47 9.68629 44.3137 7 41 7H32ZM28 6C28 7.65685 26.6569 9 25 9C23.3431 9 22 7.65685 22 6C22 4.34315 23.3431 3 25 3C26.6569 3 28 4.34315 28 6ZM10 19C10 17.8954 10.8954 17 12 17C13.1046 17 14 17.8954 14 19C14 20.1046 13.1046 21 12 21C10.8954 21 10 20.1046 10 19ZM17 19C17 18.4477 17.4477 18 18 18H39C39.5523 18 40 18.4477 40 19V20C40 20.5523 39.5523 21 39 21H18C17.4477 21 17 20.5523 17 20V19ZM17 27C17 26.4477 17.4477 26 18 26H39C39.5523 26 40 26.4477 40 27V28C40 28.5523 39.5523 29 39 29H18C17.4477 29 17 28.5523 17 28V27ZM18 34C17.4477 34 17 34.4477 17 35V36C17 36.5523 17.4477 37 18 37H39C39.5523 37 40 36.5523 40 36V35C40 34.4477 39.5523 34 39 34H18ZM12 33C10.8954 33 10 33.8954 10 35C10 36.1046 10.8954 37 12 37C13.1046 37 14 36.1046 14 35C14 33.8954 13.1046 33 12 33ZM10 27C10 25.8954 10.8954 25 12 25C13.1046 25 14 25.8954 14 27C14 28.1046 13.1046 29 12 29C10.8954 29 10 28.1046 10 27Z" fill="#433E3E"/>
</g>
</svg>
