<svg width="50" height="50" viewBox="0 0 50 50" fill="none" xmlns="http://www.w3.org/2000/svg">
<g id="icon-calendar">
<g id="icon">
<g id="Rectangle 5">
<mask id="path-1-inside-1_1_2" fill="white">
<path d="M7 5C7 2.79086 8.79086 1 11 1H12C14.2091 1 16 2.79086 16 5V13H7V5Z"/>
</mask>
<path d="M5 5C5 1.68629 7.68629 -1 11 -1H12C15.3137 -1 18 1.68629 18 5H14C14 3.89543 13.1046 3 12 3H11C9.89543 3 9 3.89543 9 5H5ZM16 13H7H16ZM5 13V5C5 1.68629 7.68629 -1 11 -1V3C9.89543 3 9 3.89543 9 5V13H5ZM12 -1C15.3137 -1 18 1.68629 18 5V13H14V5C14 3.89543 13.1046 3 12 3V-1Z" fill="#433E3E" mask="url(#path-1-inside-1_1_2)"/>
</g>
<path id="Subtract" fill-rule="evenodd" clip-rule="evenodd" d="M14 9H22V12.1316C22 13.2361 22.8954 14.1316 24 14.1316H25C26.1046 14.1316 27 13.2361 27 12.1316V9H36V12.1316C36 13.2361 36.8954 14.1316 38 14.1316H39C40.1046 14.1316 41 13.2361 41 12.1316V9H44C46.2091 9 48 10.7909 48 13V44C48 46.2091 46.2091 48 44 48H6C3.79086 48 2 46.2091 2 44V13C2 10.7909 3.79086 9 6 9H9V12.1316C9 13.2361 9.89543 14.1316 11 14.1316H12C13.1046 14.1316 14 13.2361 14 12.1316V9ZM7 17C5.34315 17 4 18.3431 4 20V43C4 44.6569 5.34315 46 7 46H43C44.6569 46 46 44.6569 46 43V20C46 18.3431 44.6569 17 43 17H7Z" fill="#433E3E"/>
<path id="Subtract_2" fill-rule="evenodd" clip-rule="evenodd" d="M14 9H22V12.1316C22 13.2361 22.8954 14.1316 24 14.1316H25C26.1046 14.1316 27 13.2361 27 12.1316V9H36V12.1316C36 13.2361 36.8954 14.1316 38 14.1316H39C40.1046 14.1316 41 13.2361 41 12.1316V9H44C46.2091 9 48 10.7909 48 13V44C48 46.2091 46.2091 48 44 48H6C3.79086 48 2 46.2091 2 44V13C2 10.7909 3.79086 9 6 9H9V12.1316C9 13.2361 9.89543 14.1316 11 14.1316H12C13.1046 14.1316 14 13.2361 14 12.1316V9ZM7 17C5.34315 17 4 18.3431 4 20V43C4 44.6569 5.34315 46 7 46H43C44.6569 46 46 44.6569 46 43V20C46 18.3431 44.6569 17 43 17H7Z" fill="#433E3E"/>
<rect id="Rectangle 18" x="9" y="27" width="6" height="4" rx="1" fill="#B0AEAE"/>
<rect id="Rectangle 17" x="9" y="33" width="6" height="4" rx="1" fill="#433E3E"/>
<rect id="Rectangle 19" x="18" y="33" width="6" height="4" rx="1" fill="#433E3E"/>
<rect id="Rectangle 20" x="27" y="33" width="6" height="4" rx="1" fill="#433E3E"/>
<rect id="Rectangle 22" x="27" y="39" width="6" height="4" rx="1" fill="#433E3E"/>
<rect id="Rectangle 21" x="36" y="33" width="6" height="4" rx="1" fill="#433E3E"/>
<rect id="Rectangle 23" x="36" y="39" width="6" height="4" rx="1" fill="#433E3E"/>
<g id="Rectangle 6">
<mask id="path-12-inside-2_1_2" fill="white">
<path d="M20 5C20 2.79086 21.7909 1 24 1H25C27.2091 1 29 2.79086 29 5V13H20V5Z"/>
</mask>
<path d="M18 5C18 1.68629 20.6863 -1 24 -1H25C28.3137 -1 31 1.68629 31 5H27C27 3.89543 26.1046 3 25 3H24C22.8954 3 22 3.89543 22 5H18ZM29 13H20H29ZM18 13V5C18 1.68629 20.6863 -1 24 -1V3C22.8954 3 22 3.89543 22 5V13H18ZM25 -1C28.3137 -1 31 1.68629 31 5V13H27V5C27 3.89543 26.1046 3 25 3V-1Z" fill="#433E3E" mask="url(#path-12-inside-2_1_2)"/>
</g>
<g id="Rectangle 7">
<mask id="path-14-inside-3_1_2" fill="white">
<path d="M34 5C34 2.79086 35.7909 1 38 1H39C41.2091 1 43 2.79086 43 5V13H34V5Z"/>
</mask>
<path d="M32 5C32 1.68629 34.6863 -1 38 -1H39C42.3137 -1 45 1.68629 45 5H41C41 3.89543 40.1046 3 39 3H38C36.8954 3 36 3.89543 36 5H32ZM43 13H34H43ZM32 13V5C32 1.68629 34.6863 -1 38 -1V3C36.8954 3 36 3.89543 36 5V13H32ZM39 -1C42.3137 -1 45 1.68629 45 5V13H41V5C41 3.89543 40.1046 3 39 3V-1Z" fill="#433E3E" mask="url(#path-14-inside-3_1_2)"/>
</g>
<rect id="Rectangle 14" x="18" y="27" width="6" height="4" rx="1" fill="#B0AEAE"/>
<rect id="Rectangle 15" x="27" y="27" width="6" height="4" rx="1" fill="#B0AEAE"/>
<rect id="Rectangle 16" x="36" y="27" width="6" height="4" rx="1" fill="#433E3E"/>
<rect id="Rectangle 10" x="18" y="21" width="6" height="4" rx="1" fill="#B0AEAE"/>
<rect id="Rectangle 11" x="27" y="21" width="6" height="4" rx="1" fill="#B0AEAE"/>
<rect id="Rectangle 12" x="36" y="21" width="6" height="4" rx="1" fill="#B0AEAE"/>
</g>
</g>
</svg>
