<svg width="50" height="50" viewBox="0 0 50 50" fill="none" xmlns="http://www.w3.org/2000/svg">
<g id="icon-house">
<g id="icon">
<path id="Subtract" fill-rule="evenodd" clip-rule="evenodd" d="M7.73077 22C7.17849 22 6.73077 22.4477 6.73077 23V47C6.73077 47.5523 7.17849 48 7.73077 48H43.2308C43.7831 48 44.2308 47.5523 44.2308 47V23C44.2308 22.4477 43.7831 22 43.2308 22H7.73077ZM19.9183 31C19.366 31 18.9183 31.4477 18.9183 32V48H32.0433V32C32.0433 31.4477 31.5955 31 31.0433 31H19.9183Z" fill="#433E3E"/>
<path id="roof" d="M14.0625 11L22.9215 2.09033C24.0753 0.929986 25.9461 0.908231 27.1265 2.04144L36.4583 11L48.2069 22.2786C48.8567 22.9024 48.4151 24 47.5144 24H2.55487C1.64492 24 1.20787 22.8834 1.87605 22.2657L14.0625 11Z" fill="#433E3E"/>
<rect id="Rectangle 1" x="35.5769" y="6" width="6.73077" height="15" rx="2" fill="#433E3E"/>
<rect id="Rectangle 2" x="0.961548" y="22" width="48.0769" height="5" rx="2" fill="#433E3E"/>
</g>
</g>
</svg>
