<svg width="50" height="50" viewBox="0 0 50 50" fill="none" xmlns="http://www.w3.org/2000/svg">
<g id="icon-lock">
<path id="Ellipse 1" d="M36.9635 15.3727V15.4826L36.9715 15.5922C37.2219 19.0047 36.9462 20.7755 36.5988 21.6385C36.448 22.0132 36.319 22.1258 36.2875 22.1517C36.255 22.1783 36.1676 22.2428 35.9138 22.2945C35.2476 22.4303 34.2351 22.3536 32.4354 22.0918C32.2552 22.0656 32.0686 22.0378 31.8761 22.0092C30.3485 21.782 28.4521 21.5 26.5 21.5C24.552 21.5 22.6307 21.7871 21.0623 22.0215C20.8591 22.0519 20.6619 22.0814 20.4712 22.1092C18.6307 22.3782 17.4988 22.4758 16.7014 22.3293C16.2013 22.2374 15.9516 22.0998 15.6741 21.5183C15.2661 20.6633 14.8922 18.9069 15.0289 15.4927L15.0313 15.4327V15.3727C15.0313 11.8571 15.9124 9.05226 17.536 7.16798C19.0935 5.36053 21.6782 4 25.9974 4C30.3166 4 32.9013 5.36053 34.4588 7.16798C36.0824 9.05226 36.9635 11.8571 36.9635 15.3727Z" stroke="#433E3E" stroke-width="6"/>
<path id="Subtract" fill-rule="evenodd" clip-rule="evenodd" d="M5 22C5 18.6863 7.68629 16 11 16H41C44.3137 16 47 18.6863 47 22V42C47 45.3137 44.3137 48 41 48H11C7.68629 48 5 45.3137 5 42V22ZM27.5333 34.5981C29.5446 33.9889 31 32.2132 31 30.1176C31 27.5187 28.7614 25.4118 26 25.4118C23.2386 25.4118 21 27.5187 21 30.1176C21 32.2132 22.4554 33.9889 24.4667 34.5981C24.1754 34.9456 24 35.3935 24 35.8824V38.4706C24 39.5752 24.8954 40.4706 26 40.4706C27.1046 40.4706 28 39.5752 28 38.4706V35.8824C28 35.3935 27.8246 34.9456 27.5333 34.5981Z" fill="#433E3E"/>
</g>
</svg>
