<svg width="50" height="50" viewBox="0 0 50 50" fill="none" xmlns="http://www.w3.org/2000/svg">
<path fill-rule="evenodd" clip-rule="evenodd" d="M3 1C1.89543 1 1 1.89543 1 3V47C1 48.1046 1.89543 49 3 49H47C48.1046 49 49 48.1046 49 47V15.8284C49 15.298 48.7893 14.7893 48.4142 14.4142L42 8L35.5858 1.58579C35.2107 1.21071 34.702 1 34.1716 1H3ZM5 3C3.89543 3 3 3.89543 3 5V45C3 46.1046 3.89543 47 5 47H45C46.1046 47 47 46.1046 47 45V16.6618C47 16.1313 46.7893 15.6226 46.4142 15.2475L40.5833 9.41667L34.7525 3.58579C34.3774 3.21071 33.8687 3 33.3382 3H5Z" fill="#5F6769"/>
<path d="M34 1L42 9L49 16H36C34.8954 16 34 15.1046 34 14V1Z" fill="#5F6769"/>
<path fill-rule="evenodd" clip-rule="evenodd" d="M8 34C6.89543 34 6 34.8954 6 36V44C6 45.1046 6.89543 46 8 46H16C17.1046 46 18 45.1046 18 44V36C18 34.8954 17.1046 34 16 34H8ZM9 36C8.44772 36 8 36.4477 8 37V43C8 43.5523 8.44772 44 9 44H15C15.5523 44 16 43.5523 16 43V37C16 36.4477 15.5523 36 15 36H9Z" fill="#5F6769"/>
<path fill-rule="evenodd" clip-rule="evenodd" d="M8 6C6.89543 6 6 6.89543 6 8V16C6 17.1046 6.89543 18 8 18H16C17.1046 18 18 17.1046 18 16V8C18 6.89543 17.1046 6 16 6H8ZM9 8C8.44772 8 8 8.44772 8 9V15C8 15.5523 8.44772 16 9 16H15C15.5523 16 16 15.5523 16 15V9C16 8.44772 15.5523 8 15 8H9Z" fill="#5F6769"/>
<path fill-rule="evenodd" clip-rule="evenodd" d="M8 20C6.89543 20 6 20.8954 6 22V30C6 31.1046 6.89543 32 8 32H16C17.1046 32 18 31.1046 18 30V22C18 20.8954 17.1046 20 16 20H8ZM9 22C8.44772 22 8 22.4477 8 23V29C8 29.5523 8.44772 30 9 30H15C15.5523 30 16 29.5523 16 29V23C16 22.4477 15.5523 22 15 22H9Z" fill="#5F6769"/>
</svg>
