<svg width="100" height="100" viewBox="0 0 100 100" fill="none" xmlns="http://www.w3.org/2000/svg">
<g id="favicon-grocery" clip-path="url(#clip0_1_2)">
<circle id="background" cx="50" cy="50" r="50" fill="#A9FCA7"/>
<g id="milk">
<path id="Rectangle 6" d="M23.9377 31.6817C24.5843 30.2479 26.0112 29.3261 27.584 29.3261H34.416C35.9888 29.3261 37.4157 30.2478 38.0623 31.6816L40.6463 37.4115C40.8795 37.9283 41 38.4889 41 39.0559V75C41 76.1046 40.1046 77 39 77H23C21.8954 77 21 76.1046 21 75V39.0559C21 38.4889 21.1205 37.9283 21.3537 37.4115L23.9377 31.6817Z" fill="white"/>
<g id="Rectangle 7">
<path d="M30 42C30 40.8954 30.8954 40 32 40H41V64H32C30.8954 64 30 63.1046 30 62V42Z" fill="#F26A6A"/>
<path d="M30 42C30 40.8954 30.8954 40 32 40H41V64H32C30.8954 64 30 63.1046 30 62V42Z" fill="#F26A6A"/>
<path d="M30 42C30 40.8954 30.8954 40 32 40H41V64H32C30.8954 64 30 63.1046 30 62V42Z" fill="#F26A6A"/>
<path d="M30 42C30 40.8954 30.8954 40 32 40H41V64H32C30.8954 64 30 63.1046 30 62V42Z" fill="#F26A6A"/>
<path d="M30 42C30 40.8954 30.8954 40 32 40H41V64H32C30.8954 64 30 63.1046 30 62V42Z" fill="#DBE9F7"/>
</g>
<path id="Rectangle 8" d="M31 44C31 42.8954 31.8954 42 33 42H41V61H33C31.8954 61 31 60.1046 31 59V44Z" fill="#F26A6A"/>
<path id="Rectangle 9" d="M27 27C27 26.4477 27.4477 26 28 26H34C34.5523 26 35 26.4477 35 27V29.3261H27V27Z" fill="#7295CA"/>
</g>
<g id="tomato">
<path id="Ellipse 11" d="M66.578 40.0146C67.1927 35.4422 65.906 32.8299 62.2824 31.4825C58.6589 30.135 55.9451 31.2597 53.4559 35.1351C52.1084 38.7587 54.1059 43.3786 57.5772 44.136C60.667 45.8183 65.2306 43.6382 66.578 40.0146Z" fill="#DE6E6E"/>
<ellipse id="Ellipse 12" cx="59.2878" cy="30.9951" rx="3" ry="0.5" transform="rotate(30.9452 59.2878 30.9951)" fill="#749668"/>
<ellipse id="Ellipse 13" rx="3" ry="0.5" transform="matrix(0.985257 0.171079 0.171079 -0.985257 64.9116 33.0863)" fill="#6D8D62"/>
<ellipse id="Ellipse 14" rx="2.27319" ry="0.5" transform="matrix(0.975615 -0.219488 -0.219488 -0.975615 64.3074 32.2346)" fill="#9ABA8F"/>
<ellipse id="Ellipse 15" cx="60.4796" cy="30.5344" rx="2.74864" ry="0.5" transform="rotate(53.4747 60.4796 30.5344)" fill="#8FB084"/>
<ellipse id="Ellipse 16" rx="2.17958" ry="0.5" transform="matrix(0.985257 0.171079 0.171079 -0.985257 60.1102 32.2076)" fill="#859E7C"/>
<ellipse id="Ellipse 17" cx="63.8594" cy="33.6018" rx="2.17958" ry="0.5" transform="rotate(-149.055 63.8594 33.6018)" fill="#B1C0AC"/>
</g>
<g id="lettuce">
<ellipse id="Ellipse 3" cx="56.5807" cy="60.1379" rx="14.5161" ry="15.8621" fill="#62A471"/>
<ellipse id="Ellipse 4" cx="36.2581" cy="55.3793" rx="7.25806" ry="7.93104" fill="#62A471"/>
<ellipse id="Ellipse 5" cx="44.9677" cy="49.0345" rx="7.25806" ry="7.93104" fill="#62A471"/>
<ellipse id="Ellipse 6" cx="49.3226" cy="37.931" rx="7.25806" ry="7.93104" fill="#62A471"/>
<ellipse id="Ellipse 7" cx="56.5807" cy="44.2759" rx="7.25806" ry="7.93104" fill="#62A471"/>
<ellipse id="Ellipse 9" cx="66.7419" cy="44.2759" rx="7.25806" ry="7.93104" fill="#62A471"/>
<ellipse id="Ellipse 10" cx="66.7419" cy="52.2069" rx="7.25806" ry="7.93104" fill="#62A471"/>
<ellipse id="Ellipse 8" cx="43.5161" cy="63.3103" rx="7.25806" ry="7.93104" fill="#62A471"/>
</g>
<g id="bread">
<path id="Rectangle 10" d="M84.6785 22.8141C82.7614 22.8283 80.9778 23.7764 79.8243 25.3943L53.3864 62.4757C51.7021 64.8381 52.1806 68.2896 54.4483 70.1353V70.1353C56.0221 71.4162 58.114 71.6193 59.8146 70.6564L63.5374 68.5486C64.9392 67.7549 66.1666 66.6538 67.1435 65.3136L89.95 34.0257C93.2322 29.5229 90.059 22.7741 84.6785 22.8141V22.8141Z" fill="#E4CE7F"/>
<path id="Rectangle 13" d="M70.3067 38.2467L76.8974 43.7555L75.1277 44.7652L68.0944 41.4029L70.3067 38.2467Z" fill="#FCECB2"/>
<path id="Rectangle 12" d="M66.6923 43.3539L73.2829 48.8626L71.5132 49.8723L64.48 46.51L66.6923 43.3539Z" fill="#FCECB2"/>
<path id="Rectangle 11" d="M73.9212 33.1393L80.5119 38.648L78.7422 39.6577L71.7089 36.2955L73.9212 33.1393Z" fill="#FCECB2"/>
</g>
<g id="basket">
<path id="Subtract" fill-rule="evenodd" clip-rule="evenodd" d="M19.6963 45.7727C17.2332 45.7727 15.3553 47.9775 15.7473 50.4092L19.6447 74.5912C20.4258 79.4373 24.6087 83 29.5173 83H70.4827C75.3913 83 79.5742 79.4373 80.3553 74.5912L84.2527 50.4092C84.6447 47.9775 82.7668 45.7727 80.3037 45.7727H19.6963ZM50.5 52.8636C48.567 52.8636 47 54.4306 47 56.3636V73.2955C47 75.2284 48.567 76.7954 50.5 76.7954C52.433 76.7954 54 75.2284 54 73.2955V56.3636C54 54.4306 52.433 52.8636 50.5 52.8636ZM61 56.3636C61 54.4306 62.567 52.8636 64.5 52.8636C66.433 52.8636 68 54.4306 68 56.3636V73.2955C68 75.2284 66.433 76.7954 64.5 76.7954C62.567 76.7954 61 75.2284 61 73.2955V56.3636ZM36.5 52.8636C34.567 52.8636 33 54.4306 33 56.3636V73.2955C33 75.2284 34.567 76.7954 36.5 76.7954C38.433 76.7954 40 75.2284 40 73.2955V56.3636C40 54.4306 38.433 52.8636 36.5 52.8636Z" fill="#63769A"/>
<rect id="Rectangle 5" x="13" y="49.3182" width="5.31818" height="74" rx="2" transform="rotate(-90 13 49.3182)" fill="#50658D"/>
</g>
</g>
<defs>
<clipPath id="clip0_1_2">
<rect width="100" height="100" fill="white"/>
</clipPath>
</defs>
</svg>
