<svg width="300" height="110" viewBox="0 0 300 110" fill="none" xmlns="http://www.w3.org/2000/svg">
<g clip-path="url(#clip0_1_2)">
<path fill-rule="evenodd" clip-rule="evenodd" d="M12.0011 11C11.2852 11 10.8012 11.7301 11.08 12.3895L21.9925 38.1969V39.4749C21.1455 40.1224 20.454 40.951 19.9811 41.9463C18.0544 46.0009 20.4835 51.2853 25.4066 53.7494C30.3297 56.2134 35.8826 54.924 37.8093 50.8695C39.7359 46.8149 37.3069 41.5305 32.3837 39.0664C30.0128 37.8797 27.4958 37.5636 25.3081 38.0076L24.4925 37.1706L16.9251 12.4153C16.6681 11.5744 15.8919 11 15.0125 11H12.0011ZM35.4925 44.3547C35.4925 44.6381 35.2686 44.8678 34.9925 44.8678C34.7164 44.8678 34.4925 44.6381 34.4925 44.3547C34.4925 44.0713 34.7164 43.8415 34.9925 43.8415C35.2686 43.8415 35.4925 44.0713 35.4925 44.3547ZM35.9925 46.9204C36.2686 46.9204 36.4925 46.6907 36.4925 46.4073C36.4925 46.1238 36.2686 45.8941 35.9925 45.8941C35.7164 45.8941 35.4925 46.1238 35.4925 46.4073C35.4925 46.6907 35.7164 46.9204 35.9925 46.9204ZM35.4925 49.4861C35.4925 49.7696 35.2686 49.9993 34.9925 49.9993C34.7164 49.9993 34.4925 49.7696 34.4925 49.4861C34.4925 49.2027 34.7164 48.973 34.9925 48.973C35.2686 48.973 35.4925 49.2027 35.4925 49.4861ZM33.9925 47.9467C34.2686 47.9467 34.4925 47.717 34.4925 47.4336C34.4925 47.1501 34.2686 46.9204 33.9925 46.9204C33.7164 46.9204 33.4925 47.1501 33.4925 47.4336C33.4925 47.717 33.7164 47.9467 33.9925 47.9467ZM32.4925 48.4598C32.4925 48.7433 32.2686 48.973 31.9925 48.973C31.7164 48.973 31.4925 48.7433 31.4925 48.4598C31.4925 48.1764 31.7164 47.9467 31.9925 47.9467C32.2686 47.9467 32.4925 48.1764 32.4925 48.4598ZM32.9925 45.8941C33.2686 45.8941 33.4925 45.6644 33.4925 45.381C33.4925 45.0976 33.2686 44.8678 32.9925 44.8678C32.7164 44.8678 32.4925 45.0976 32.4925 45.381C32.4925 45.6644 32.7164 45.8941 32.9925 45.8941ZM32.4925 43.3284C32.4925 43.6118 32.2686 43.8415 31.9925 43.8415C31.7164 43.8415 31.4925 43.6118 31.4925 43.3284C31.4925 43.045 31.7164 42.8152 31.9925 42.8152C32.2686 42.8152 32.4925 43.045 32.4925 43.3284ZM28.9925 43.8415C29.2686 43.8415 29.4925 43.6118 29.4925 43.3284C29.4925 43.045 29.2686 42.8152 28.9925 42.8152C28.7164 42.8152 28.4925 43.045 28.4925 43.3284C28.4925 43.6118 28.7164 43.8415 28.9925 43.8415ZM33.4925 51.5387C33.4925 51.8221 33.2686 52.0519 32.9925 52.0519C32.7164 52.0519 32.4925 51.8221 32.4925 51.5387C32.4925 51.2553 32.7164 51.0256 32.9925 51.0256C33.2686 51.0256 33.4925 51.2553 33.4925 51.5387ZM29.9925 48.973C30.2686 48.973 30.4925 48.7433 30.4925 48.4598C30.4925 48.1764 30.2686 47.9467 29.9925 47.9467C29.7164 47.9467 29.4925 48.1764 29.4925 48.4598C29.4925 48.7433 29.7164 48.973 29.9925 48.973ZM31.4925 50.5124C31.4925 50.7958 31.2686 51.0256 30.9925 51.0256C30.7164 51.0256 30.4925 50.7958 30.4925 50.5124C30.4925 50.229 30.7164 49.9993 30.9925 49.9993C31.2686 49.9993 31.4925 50.229 31.4925 50.5124ZM28.9925 53.0782C29.2686 53.0782 29.4925 52.8484 29.4925 52.565C29.4925 52.2816 29.2686 52.0519 28.9925 52.0519C28.7164 52.0519 28.4925 52.2816 28.4925 52.565C28.4925 52.8484 28.7164 53.0782 28.9925 53.0782ZM28.4925 50.5124C28.4925 50.7958 28.2686 51.0256 27.9925 51.0256C27.7164 51.0256 27.4925 50.7958 27.4925 50.5124C27.4925 50.229 27.7164 49.9993 27.9925 49.9993C28.2686 49.9993 28.4925 50.229 28.4925 50.5124ZM25.9925 52.0519C26.2686 52.0519 26.4925 51.8221 26.4925 51.5387C26.4925 51.2553 26.2686 51.0256 25.9925 51.0256C25.7164 51.0256 25.4925 51.2553 25.4925 51.5387C25.4925 51.8221 25.7164 52.0519 25.9925 52.0519ZM21.4925 45.381C21.4925 45.6644 21.2686 45.8941 20.9925 45.8941C20.7163 45.8941 20.4925 45.6644 20.4925 45.381C20.4925 45.0976 20.7163 44.8678 20.9925 44.8678C21.2686 44.8678 21.4925 45.0976 21.4925 45.381ZM21.9925 47.9467C22.2686 47.9467 22.4925 47.717 22.4925 47.4336C22.4925 47.1501 22.2686 46.9204 21.9925 46.9204C21.7163 46.9204 21.4925 47.1501 21.4925 47.4336C21.4925 47.717 21.7163 47.9467 21.9925 47.9467ZM23.4925 49.4861C23.4925 49.7696 23.2686 49.9993 22.9925 49.9993C22.7163 49.9993 22.4925 49.7696 22.4925 49.4861C22.4925 49.2027 22.7163 48.973 22.9925 48.973C23.2686 48.973 23.4925 49.2027 23.4925 49.4861ZM25.9925 49.9993C26.2686 49.9993 26.4925 49.7696 26.4925 49.4861C26.4925 49.2027 26.2686 48.973 25.9925 48.973C25.7164 48.973 25.4925 49.2027 25.4925 49.4861C25.4925 49.7696 25.7164 49.9993 25.9925 49.9993ZM25.4925 45.381C25.4925 45.6644 25.2686 45.8941 24.9925 45.8941C24.7164 45.8941 24.4925 45.6644 24.4925 45.381C24.4925 45.0976 24.7164 44.8678 24.9925 44.8678C25.2686 44.8678 25.4925 45.0976 25.4925 45.381ZM23.9925 47.9467C24.2686 47.9467 24.4925 47.717 24.4925 47.4336C24.4925 47.1501 24.2686 46.9204 23.9925 46.9204C23.7163 46.9204 23.4925 47.1501 23.4925 47.4336C23.4925 47.717 23.7163 47.9467 23.9925 47.9467ZM28.4925 45.381C28.4925 45.6644 28.2686 45.8941 27.9925 45.8941C27.7164 45.8941 27.4925 45.6644 27.4925 45.381C27.4925 45.0976 27.7164 44.8678 27.9925 44.8678C28.2686 44.8678 28.4925 45.0976 28.4925 45.381ZM26.9925 47.9467C27.2686 47.9467 27.4925 47.717 27.4925 47.4336C27.4925 47.1501 27.2686 46.9204 26.9925 46.9204C26.7164 46.9204 26.4925 47.1501 26.4925 47.4336C26.4925 47.717 26.7164 47.9467 26.9925 47.9467ZM31.4925 46.4073C31.4925 46.6907 31.2686 46.9204 30.9925 46.9204C30.7164 46.9204 30.4925 46.6907 30.4925 46.4073C30.4925 46.1238 30.7164 45.8941 30.9925 45.8941C31.2686 45.8941 31.4925 46.1238 31.4925 46.4073ZM29.9925 41.7889C30.2686 41.7889 30.4925 41.5592 30.4925 41.2758C30.4925 40.9924 30.2686 40.7626 29.9925 40.7626C29.7164 40.7626 29.4925 40.9924 29.4925 41.2758C29.4925 41.5592 29.7164 41.7889 29.9925 41.7889ZM27.4925 41.2758C27.4925 41.5592 27.2686 41.7889 26.9925 41.7889C26.7164 41.7889 26.4925 41.5592 26.4925 41.2758C26.4925 40.9924 26.7164 40.7626 26.9925 40.7626C27.2686 40.7626 27.4925 40.9924 27.4925 41.2758ZM24.9925 41.7889C25.2686 41.7889 25.4925 41.5592 25.4925 41.2758C25.4925 40.9924 25.2686 40.7626 24.9925 40.7626C24.7164 40.7626 24.4925 40.9924 24.4925 41.2758C24.4925 41.5592 24.7164 41.7889 24.9925 41.7889ZM25.4925 43.3284C25.4925 43.6118 25.2686 43.8415 24.9925 43.8415C24.7164 43.8415 24.4925 43.6118 24.4925 43.3284C24.4925 43.045 24.7164 42.8152 24.9925 42.8152C25.2686 42.8152 25.4925 43.045 25.4925 43.3284ZM22.9925 43.8415C23.2686 43.8415 23.4925 43.6118 23.4925 43.3284C23.4925 43.045 23.2686 42.8152 22.9925 42.8152C22.7163 42.8152 22.4925 43.045 22.4925 43.3284C22.4925 43.6118 22.7163 43.8415 22.9925 43.8415ZM23.4925 45.381C23.4925 45.6644 23.2686 45.8941 22.9925 45.8941C22.7163 45.8941 22.4925 45.6644 22.4925 45.381C22.4925 45.0976 22.7163 44.8678 22.9925 44.8678C23.2686 44.8678 23.4925 45.0976 23.4925 45.381Z" fill="#848484"/>
<path d="M282.649 37.9769C282.595 37.4013 282.165 36.7982 281.223 36.2225C280.29 35.6527 278.939 35.1659 277.247 34.8004C273.87 34.0707 269.246 33.8483 264.183 34.3213C259.121 34.7943 254.618 35.8695 251.434 37.2124C249.839 37.885 248.602 38.6135 247.791 39.3463C246.971 40.0867 246.661 40.759 246.714 41.3345C246.768 41.91 247.198 42.5132 248.14 43.0889C249.073 43.6587 250.424 44.1454 252.116 44.511C255.494 45.2407 260.118 45.4631 265.18 44.9901C270.243 44.517 274.745 43.4418 277.929 42.099C279.524 41.4264 280.761 40.6978 281.573 39.965C282.392 39.2247 282.703 38.5524 282.649 37.9769Z" stroke="#848484"/>
<mask id="path-3-inside-1_1_2" fill="white">
<path d="M250.361 85.7403C251.132 93.9886 258.444 100.05 266.692 99.2797L273.752 98.62C282 97.8493 288.062 90.5379 287.292 82.2896L283.147 37.9304L246.217 41.3811L250.361 85.7403Z"/>
</mask>
<path d="M249.366 85.8333C250.188 94.6315 257.987 101.097 266.785 100.275L273.845 99.6157C282.643 98.7936 289.109 90.9948 288.287 82.1965L286.296 82.3826C287.015 90.0811 281.357 96.905 273.659 97.6244L266.599 98.2841C258.9 99.0034 252.076 93.3457 251.357 85.6472L249.366 85.8333ZM283.147 37.9304L246.217 41.3811L283.147 37.9304ZM245.221 41.4741L249.366 85.8333C250.188 94.6315 257.987 101.097 266.785 100.275L266.599 98.2841C258.9 99.0034 252.076 93.3457 251.357 85.6472L247.212 41.288L245.221 41.4741ZM273.845 99.6157C282.643 98.7936 289.109 90.9948 288.287 82.1965L284.142 37.8373L282.151 38.0234L286.296 82.3826C287.015 90.0811 281.357 96.905 273.659 97.6244L273.845 99.6157Z" fill="#848484" mask="url(#path-3-inside-1_1_2)"/>
<mask id="path-5-inside-2_1_2" fill="white">
<path d="M252.029 83.6473C252.748 91.3457 259.572 97.0034 267.27 96.2841L272.629 95.7834C280.327 95.0641 285.985 88.2401 285.266 80.5416L281.482 40.0469L248.245 43.1526L252.029 83.6473Z"/>
</mask>
<path d="M251.033 83.7403C251.804 91.9886 259.115 98.0505 267.363 97.2797L272.722 96.7791C280.97 96.0083 287.032 88.697 286.261 80.4486L284.27 80.6347C284.938 87.7832 279.684 94.1198 272.536 94.7877L267.177 95.2884C260.029 95.9564 253.692 90.7028 253.024 83.5542L251.033 83.7403ZM281.482 40.0469L248.245 43.1526L281.482 40.0469ZM247.249 43.2456L251.033 83.7403C251.804 91.9886 259.115 98.0505 267.363 97.2797L267.177 95.2884C260.029 95.9564 253.692 90.7028 253.024 83.5542L249.24 43.0595L247.249 43.2456ZM272.722 96.7791C280.97 96.0083 287.032 88.697 286.261 80.4486L282.477 39.9539L280.486 40.14L284.27 80.6347C284.938 87.7832 279.684 94.1198 272.536 94.7877L272.722 96.7791Z" fill="#848484" mask="url(#path-5-inside-2_1_2)"/>
<path d="M246.77 42.7121L246.569 40.5564L238.962 43.6874L247.583 51.4114L246.77 42.7121Z" stroke="#848484"/>
<path d="M239.474 43.9721L246.353 42.8391L246.126 40.409L239.474 43.9721Z" fill="#848484"/>
<path d="M282.982 61.4783C282.926 60.88 282.522 60.272 281.68 59.6964C280.841 59.1231 279.628 58.627 278.106 58.2477C275.068 57.4902 270.911 57.2252 266.363 57.6502C261.815 58.0751 257.779 59.1057 254.934 60.4129C253.509 61.0675 252.409 61.7797 251.69 62.4986C250.969 63.2203 250.685 63.8926 250.741 64.4908C250.797 65.0891 251.201 65.6971 252.043 66.2727C252.882 66.846 254.095 67.3421 255.617 67.7214C258.655 68.4789 262.812 68.7439 267.36 68.3189C271.908 67.8939 275.944 66.8634 278.789 65.5562C280.214 64.9016 281.314 64.1894 282.032 63.4705C282.754 62.7488 283.038 62.0765 282.982 61.4783Z" stroke="#848484"/>
<path d="M264.212 44.6021L266.059 44.4296L267.608 61.003C267.655 61.5129 267.281 61.9649 266.771 62.0125V62.0125C266.261 62.0602 265.809 61.6854 265.761 61.1755L264.212 44.6021Z" fill="#848484"/>
<path fill-rule="evenodd" clip-rule="evenodd" d="M286.688 45.9339L283.964 46.6787L284.464 52.0249L286.265 51.3663L288.717 77.6112L290.654 78.4107L292.41 77.2662L289.867 50.0492L289.867 50.0492L289.594 47.1331L286.688 45.9339Z" fill="#848484"/>
<path fill-rule="evenodd" clip-rule="evenodd" d="M268.844 23.2894C269.103 23.0157 269.256 22.723 269.339 22.406C268.087 23.2004 265.837 23.8594 263.228 24.1031C260.62 24.3468 258.286 24.1163 256.909 23.5674C257.05 23.8635 257.254 24.1228 257.559 24.3439C258.314 24.8918 259.909 25.3699 263.317 25.0515C266.725 24.7331 268.204 23.9677 268.844 23.2894ZM262.485 26.1178C256.398 26.4709 255.783 24.1552 255.615 22.3632C255.44 20.4842 258.695 19.6241 262.774 19.243C266.853 18.8618 270.212 19.104 270.387 20.9829L270.387 20.9829C270.555 22.775 270.379 25.1645 264.332 25.9452L265.519 38.6462C265.566 39.1561 265.192 39.608 264.682 39.6557C264.172 39.7033 263.72 39.3286 263.672 38.8187L262.485 26.1178ZM269.366 21.0783C269.341 21.1165 269.295 21.175 269.211 21.2543C268.98 21.4713 268.577 21.7285 267.985 21.9867C266.811 22.4985 265.099 22.924 263.135 23.1075C261.172 23.2909 259.411 23.1899 258.162 22.9045C257.532 22.7606 257.089 22.5823 256.822 22.4118C256.724 22.3496 256.668 22.3006 256.636 22.2678C256.661 22.2296 256.708 22.1711 256.792 22.0918C257.023 21.8748 257.425 21.6176 258.018 21.3594C259.192 20.8476 260.904 20.4221 262.867 20.2386C264.831 20.0552 266.592 20.1562 267.841 20.4416C268.471 20.5855 268.913 20.7638 269.181 20.9343C269.278 20.9965 269.335 21.0455 269.366 21.0783Z" fill="#848484"/>
<path d="M247.166 96.0054C247.108 95.3822 247.422 94.8096 248.116 94.3327C248.817 93.8512 249.858 93.5106 251.077 93.3967C252.295 93.2829 253.381 93.4247 254.16 93.768C254.931 94.108 255.345 94.6126 255.403 95.2358C255.426 95.4821 255.324 95.7834 255.028 96.1343C254.735 96.4829 254.288 96.8333 253.734 97.1544C252.626 97.7971 251.189 98.2651 249.99 98.3771C248.803 98.488 248.176 98.2223 247.816 97.8495C247.435 97.4546 247.244 96.8333 247.166 96.0054Z" fill="#D7D7D7" stroke="#848484"/>
<path d="M247.148 96.2032C248.102 96.441 248.669 97.5319 251.764 95.7719" stroke="#848484" stroke-width="0.5"/>
<path d="M255.467 99.681C255.525 100.304 255.939 100.809 256.71 101.149C257.488 101.492 258.575 101.634 259.793 101.52C261.011 101.406 262.052 101.066 262.754 100.584C263.448 100.107 263.762 99.5345 263.704 98.9113C263.681 98.665 263.524 98.3879 263.169 98.0978C262.816 97.8096 262.312 97.548 261.708 97.3351C260.5 96.9089 259.001 96.7153 257.802 96.8272C256.615 96.9382 256.049 97.3153 255.764 97.7484C255.462 98.2072 255.389 98.8531 255.467 99.681Z" fill="#D7D7D7" stroke="#848484"/>
<path d="M255.345 98.9489C255.835 99.382 257.573 98.7408 259.443 99.5238" stroke="#848484" stroke-width="0.5"/>
<path d="M281.213 96.3176C281.271 96.9408 281.685 97.4454 282.456 97.7853C283.235 98.1286 284.321 98.2705 285.539 98.1566C286.757 98.0428 287.798 97.7022 288.5 97.2206C289.194 96.7437 289.508 96.1711 289.45 95.5479C289.427 95.3016 289.27 95.0245 288.915 94.7344C288.562 94.4462 288.058 94.1846 287.454 93.9717C286.246 93.5455 284.747 93.3518 283.548 93.4638C282.361 93.5748 281.795 93.9519 281.51 94.385C281.208 94.8438 281.135 95.4897 281.213 96.3176Z" fill="#D7D7D7" stroke="#848484"/>
<path d="M281.158 96.1265C282.051 95.7162 282.407 94.5391 285.775 95.6952" stroke="#848484" stroke-width="0.5"/>
<path d="M142.315 40.4408L146.884 42.5664L129.231 79.2987C128.754 80.2906 127.563 80.717 126.565 80.2529L126.125 80.048C125.129 79.5849 124.699 78.4086 125.161 77.4127L142.315 40.4408Z" fill="#848484"/>
<path d="M148.574 12.9144L164.662 20.6317C165.997 21.272 166.477 22.922 165.695 24.1808L153.628 43.6012C152.956 44.6821 151.578 45.0934 150.426 44.5571L138.869 39.1813C137.713 38.6435 137.154 37.3249 137.57 36.121L145.105 14.3591C145.596 12.9422 147.221 12.2654 148.574 12.9144Z" stroke="#848484"/>
<path d="M132.996 52.1451L111.945 18.4075C110.794 16.5625 107.036 12.7416 103.5 10.108C97.3963 5.56254 115.089 45.4589 121.161 54.1239C124.515 58.9105 120.891 52.8183 129.086 54.5847" stroke="#848484"/>
<path d="M149.999 75.9059L133.388 51.9006L128.464 54.4816L141.842 74.9349L143.501 79.4554L147.108 78.7199L149.999 75.9059Z" fill="#848484"/>
<ellipse rx="0.833792" ry="0.923993" transform="matrix(-0.529354 -0.848401 -0.848401 0.529354 137.166 62.3194)" fill="#D9D9D9"/>
<ellipse rx="0.833792" ry="0.923993" transform="matrix(-0.529354 -0.848401 -0.848401 0.529354 144.228 73.6377)" fill="#D9D9D9"/>
<path d="M12.3751 75.6229C12.5008 74.5836 13.3378 73.4233 14.9845 72.2166C16.6375 71.0054 19.0157 69.8151 22.0035 68.714C27.9748 66.5136 36.2937 64.7013 45.8836 63.7674C55.4791 62.8329 63.7277 62.9071 69.8816 63.9251C72.9594 64.4342 75.4917 65.1759 77.4009 66.1313C79.278 67.0705 80.5096 68.1939 81.1015 69.4636C81.4907 73.5324 81.4322 78.4571 77.3974 82.7841C73.3096 87.1677 65.0495 91.038 48.6946 92.6308C32.3436 94.2232 23.4819 91.8962 18.6131 88.2628C13.7896 84.6631 12.7764 79.6987 12.3751 75.6229Z" stroke="#848484"/>
<path d="M12.4185 76.069C12.3171 75.0282 12.9923 73.8381 14.6095 72.5631C16.2053 71.305 18.6037 70.0595 21.6498 68.9055C27.7351 66.6003 36.2952 64.7012 45.8836 63.7673C55.4721 62.8335 64.2378 63.0453 70.6535 64.1332C73.865 64.6777 76.4587 65.4371 78.2673 66.3636C80.1001 67.3026 80.9922 68.3401 81.0936 69.3809C81.1949 70.4217 80.5197 71.6118 78.9026 72.8868C77.3068 74.1449 74.9083 75.3904 71.8622 76.5444C65.777 78.8497 57.2169 80.7488 47.6284 81.6826C38.0399 82.6164 29.2742 82.4046 22.8585 81.3168C19.647 80.7722 17.0533 80.0129 15.2448 79.0863C13.412 78.1473 12.5198 77.1099 12.4185 76.069Z" stroke="#848484"/>
<path d="M22.9045 80.5739C22.8997 80.5251 22.9172 80.382 23.1789 80.1329C23.4326 79.8915 23.8461 79.6203 24.4327 79.3305C25.6007 78.7537 27.3431 78.1574 29.547 77.5812C33.947 76.4308 40.0968 75.383 46.9499 74.7156C53.803 74.0481 60.0393 73.8897 64.5786 74.1695C66.8523 74.3097 68.677 74.5586 69.9344 74.8992C70.5659 75.0703 71.024 75.2567 71.3194 75.4446C71.6242 75.6385 71.669 75.7756 71.6738 75.8243C71.6785 75.873 71.661 76.0162 71.3993 76.2652C71.1457 76.5066 70.7322 76.7779 70.1456 77.0676C68.9775 77.6445 67.2351 78.2407 65.0312 78.817C60.6312 79.9674 54.4815 81.0152 47.6284 81.6826C40.7753 82.35 34.5389 82.5085 29.9996 82.2286C27.726 82.0884 25.9013 81.8396 24.6439 81.4989C24.0124 81.3278 23.5543 81.1415 23.2589 80.9535C22.954 80.7596 22.9092 80.6226 22.9045 80.5739Z" stroke="#848484"/>
<path d="M80.8523 72.0618L79.553 74.4735L80.2032 76.9081L119.441 65.8957C120.501 65.5983 121.128 64.499 120.844 63.4357L120.725 62.9912C120.439 61.9208 119.339 61.2932 118.272 61.5918L80.8523 72.0618Z" fill="#848484"/>
<ellipse rx="0.362314" ry="1.33053" transform="matrix(0.258016 0.966141 0.966141 -0.258016 116.521 63.0792)" fill="#D9D9D9"/>
<path d="M235.064 21.3054C235.08 19.0594 233.759 16.8421 231.374 15.0634C228.985 13.2825 225.573 11.9808 221.556 11.5896C213.484 10.8035 207.722 13.6256 206.378 19.0195C205.986 23.0643 205.738 27.9709 207.26 32.0268C208.018 34.0481 209.213 35.8473 211.046 37.2254C212.879 38.6043 215.383 39.5854 218.797 39.9179C222.208 40.2501 224.855 39.7414 226.923 38.6989C228.992 37.6564 230.519 36.0617 231.661 34.1619C233.955 30.3472 234.669 25.3523 235.064 21.3054Z" stroke="#848484"/>
<path d="M235.019 21.7722C235.246 19.4408 233.95 17.1086 231.511 15.2279C229.079 13.3523 225.569 11.9804 221.556 11.5896C217.543 11.1988 213.835 11.8677 211.086 13.2388C208.331 14.6136 206.609 16.6519 206.382 18.9833C206.155 21.3147 207.451 23.647 209.89 25.5276C212.322 27.4032 215.832 28.7751 219.844 29.1659C223.857 29.5567 227.566 28.8878 230.314 27.5167C233.07 26.1419 234.792 24.1036 235.019 21.7722Z" stroke="#848484"/>
<path d="M227.356 28.0033C227.368 27.8775 227.31 27.6657 226.995 27.3719C226.688 27.0844 226.199 26.7833 225.543 26.4973C224.235 25.9277 222.366 25.4638 220.248 25.2576C218.131 25.0514 216.207 25.1459 214.814 25.4525C214.115 25.6064 213.578 25.8077 213.22 26.0304C212.855 26.258 212.756 26.4544 212.744 26.5803C212.732 26.7061 212.791 26.9179 213.105 27.2117C213.413 27.4992 213.901 27.8003 214.558 28.0863C215.865 28.6559 217.735 29.1198 219.852 29.326C221.97 29.5322 223.893 29.4377 225.286 29.1311C225.986 28.9772 226.523 28.7759 226.88 28.5532C227.245 28.3256 227.344 28.1292 227.356 28.0033Z" stroke="#848484"/>
<path d="M206.056 21.5613L206.486 23.8474L206.075 26.2605L190.729 18.1185C189.758 17.6031 189.124 16.3189 189.308 15.2385L189.364 14.9091C189.551 13.8129 190.507 13.3438 191.493 13.8648L206.056 21.5613Z" fill="#848484"/>
<ellipse rx="0.351952" ry="0.597638" transform="matrix(-0.167781 0.985824 -0.895235 -0.445594 191.181 14.7025)" fill="#D9D9D9"/>
<path d="M200.367 72.8184C202.278 77.874 205.509 87.4847 207.643 88.4706C210.029 89.5723 214.944 88.6565 216.773 86.7697C218.236 85.2602 218.618 74.572 218.626 69.4166M200.367 72.8184C205.159 69.3514 211.659 67.8514 218.626 69.4166M200.367 72.8184C203.877 73.4531 212.441 73.6613 218.626 69.4166" stroke="#848484" stroke-width="0.5"/>
<path d="M218.73 73.8747C219.15 73.528 220.3 72.9381 221.539 73.3513C223.089 73.8679 220.325 82.4357 217.661 83.7373" stroke="#848484" stroke-width="0.5"/>
<path d="M218.638 74.9259C218.83 74.7175 218.908 75.0927 219.486 74.7679C222.242 73.2205 219.173 80.5219 217.929 81.2717" stroke="#848484" stroke-width="0.5"/>
<path d="M124.916 84.8184C123.005 89.874 119.774 99.4847 117.64 100.471C115.255 101.572 110.339 100.656 108.51 98.7697C107.048 97.2602 106.665 86.572 106.657 81.4166M124.916 84.8184C120.125 81.3514 113.625 79.8514 106.657 81.4166M124.916 84.8184C121.407 85.4531 112.842 85.6613 106.657 81.4166" stroke="#848484" stroke-width="0.5"/>
<path d="M106.553 85.8747C106.133 85.528 104.984 84.9381 103.744 85.3513C102.194 85.8679 104.958 94.4357 107.622 95.7373" stroke="#848484" stroke-width="0.5"/>
<path d="M106.645 86.9259C106.453 86.7175 106.376 87.0927 105.797 86.7679C103.042 85.2205 106.11 92.5219 107.355 93.2717" stroke="#848484" stroke-width="0.5"/>
<path d="M25 99.5C21.8333 95.6667 13.8 88.8 7 92C-1.5 96 11.5 102 25 99.5Z" stroke="#848484" stroke-width="0.5"/>
<path d="M24.5 99.5C19.8333 98.6667 9.4 96.2 5 93" stroke="#848484" stroke-width="0.5"/>
<path d="M5 93C4.33333 92.6667 3 91.8 3 91" stroke="#848484" stroke-width="0.5"/>
<path d="M22 95C20.5455 95.8889 17.3091 98.3333 16 101" stroke="#848484" stroke-width="0.5"/>
<path d="M24 97C23.3333 97 20.6667 98.6 20 101" stroke="#848484" stroke-width="0.5"/>
<path d="M19 93C17.1538 93.8485 12.9692 96.4364 11 100" stroke="#848484" stroke-width="0.5"/>
<path d="M17 92C14.3333 92.6667 9 95.2 9 100" stroke="#848484" stroke-width="0.5"/>
<path d="M14.5 91C11 91.8333 4.2 94.4 5 98" stroke="#848484" stroke-width="0.5"/>
<path d="M169 42.5C172.167 38.6667 180.2 31.8 187 35C195.5 39 182.5 45 169 42.5Z" stroke="#848484" stroke-width="0.5"/>
<path d="M169.5 42.5C174.167 41.6667 184.6 39.2 189 36" stroke="#848484" stroke-width="0.5"/>
<path d="M189 36C189.667 35.6667 191 34.8 191 34" stroke="#848484" stroke-width="0.5"/>
<path d="M172 38C173.455 38.8889 176.691 41.3333 178 44" stroke="#848484" stroke-width="0.5"/>
<path d="M170 40C170.667 40 173.333 41.6 174 44" stroke="#848484" stroke-width="0.5"/>
<path d="M175 36C176.846 36.8485 181.031 39.4364 183 43" stroke="#848484" stroke-width="0.5"/>
<path d="M177 35C179.667 35.6667 185 38.2 185 43" stroke="#848484" stroke-width="0.5"/>
<path d="M179.5 34C183 34.8333 189.8 37.4 189 41" stroke="#848484" stroke-width="0.5"/>
<path d="M221 96.5C224.167 92.6667 232.2 85.8 239 89C247.5 93 234.5 99 221 96.5Z" stroke="#848484" stroke-width="0.5"/>
<path d="M221.5 96.5C226.167 95.6667 236.6 93.2 241 90" stroke="#848484" stroke-width="0.5"/>
<path d="M241 90C241.667 89.6667 243 88.8 243 88" stroke="#848484" stroke-width="0.5"/>
<path d="M224 92C225.455 92.8889 228.691 95.3333 230 98" stroke="#848484" stroke-width="0.5"/>
<path d="M222 94C222.667 94 225.333 95.6 226 98" stroke="#848484" stroke-width="0.5"/>
<path d="M227 90C228.846 90.8485 233.031 93.4364 235 97" stroke="#848484" stroke-width="0.5"/>
<path d="M229 89C231.667 89.6667 237 92.2 237 97" stroke="#848484" stroke-width="0.5"/>
<path d="M231.5 88C235 88.8333 241.8 91.4 241 95" stroke="#848484" stroke-width="0.5"/>
<rect x="158.013" y="76.8748" width="22" height="22" rx="1.5" transform="rotate(-26.6316 158.013 76.8748)" stroke="#848484"/>
<rect x="156.336" y="76.3177" width="24.5" height="24.5" rx="1.75" transform="rotate(-26.6316 156.336 76.3177)" stroke="#848484" stroke-width="0.5"/>
<path d="M160.477 80.6732L162.036 74.8577L166.505 72.6164L162.72 86.2608L165.409 91.6243L170.528 70.5993L174.551 68.5821L168.098 95.8697L169.216 95.8684L172.791 94.0754L178.352 68.3541L181.041 73.7176L177.261 91.8341L181.73 89.5928L183.731 79.081" stroke="#848484" stroke-width="0.5"/>
<path d="M179.249 71.26L173.657 69.0304L169.187 71.2716L182.386 76.3993L185.075 81.7627L165.164 73.2888L161.142 75.3059L186.87 86.4564L186.2 87.3516L182.624 89.1446L158.686 78.2156L161.375 83.5791L178.155 91.3858L173.685 93.6271L164.065 88.9425" stroke="#848484" stroke-width="0.5"/>
<path d="M100.841 38.6117C100.841 38.6117 100.84 38.6104 100.837 38.6079C100.839 38.6105 100.841 38.6117 100.841 38.6117ZM100.383 38.631C100.491 38.5831 100.577 38.5387 100.644 38.4991C100.573 38.4682 100.482 38.4348 100.369 38.4005C99.9254 38.2656 99.2596 38.1512 98.4058 38.0702C96.7063 37.909 94.3528 37.8879 91.7522 38.0493C89.1517 38.2108 86.8188 38.523 85.1523 38.8932C84.3152 39.0792 83.6686 39.275 83.245 39.4639C83.1375 39.5118 83.0515 39.5561 82.9842 39.5957C83.0559 39.6267 83.1467 39.6601 83.2593 39.6943C83.703 39.8293 84.3688 39.9436 85.2226 40.0246C86.9221 40.1858 89.2756 40.207 91.8762 40.0455C94.4768 39.884 96.8096 39.5719 98.4761 39.2016C99.3133 39.0156 99.9598 38.8198 100.383 38.631ZM82.803 39.7317C82.8032 39.7317 82.8044 39.7303 82.8062 39.7275C82.8038 39.7303 82.8029 39.7317 82.803 39.7317ZM82.7876 39.4831C82.7874 39.4832 82.7885 39.4844 82.7913 39.4869C82.7891 39.4844 82.7877 39.4831 82.7876 39.4831ZM100.822 38.3673C100.825 38.3645 100.826 38.3631 100.825 38.3631C100.825 38.3631 100.824 38.3645 100.822 38.3673Z" stroke="#848484"/>
<path d="M86.951 33.3378L95.9337 32.7801C98.4142 32.626 100.55 34.512 100.704 36.9925L102.687 68.931C102.841 71.4115 100.955 73.5472 98.4747 73.7013L89.492 74.259C87.0115 74.4131 84.8758 72.5271 84.7217 70.0466L82.7385 38.1081C82.5845 35.6276 84.4705 33.4919 86.951 33.3378Z" stroke="#848484"/>
<path d="M88.4514 31.6691L88.4477 31.391C88.4453 31.2195 88.4254 31.0487 88.3881 30.8813L87.3442 26.1963C87.153 25.3382 87.7373 24.5005 88.6085 24.3834L90.7781 24.0919C90.849 24.0823 90.9206 24.0779 90.9922 24.0786L93.1812 24.0995C94.0602 24.1079 94.7436 24.8669 94.6601 25.742L94.1992 30.5688C94.1867 30.6993 94.1845 30.8305 94.1926 30.9614L94.2189 31.3837C94.2702 32.2105 93.6415 32.9224 92.8147 32.9737L91.4424 33.059L90.0443 33.1458C89.189 33.1989 88.4631 32.5259 88.4514 31.6691Z" stroke="#848484"/>
<path d="M88.1745 18.9933C88.0797 18.4465 88.4483 17.9271 88.9957 17.836L90.3799 17.6057C90.4476 17.5944 90.5163 17.5902 90.5849 17.593L91.987 17.6503C92.5414 17.6729 92.9714 18.1427 92.945 18.6971L92.721 23.3966L92.7327 23.5858C92.7969 24.6193 92.0111 25.5092 90.9775 25.5734V25.5734V25.5734C89.9164 25.6393 89.0118 24.8129 88.9816 23.7502L88.9802 23.6983C88.9788 23.6522 88.9742 23.6062 88.9664 23.5608L88.1745 18.9933Z" fill="#848484"/>
<path d="M95.5458 42.6682L101.035 42.3274L102.408 64.4397L96.9188 64.7805C95.5408 64.8661 94.3543 63.8183 94.2687 62.4403L93.2055 45.3184C93.1199 43.9403 94.1677 42.7538 95.5458 42.6682Z" stroke="#848484"/>
<path d="M0 105C0.833333 106.333 2.4 109 6 109C10.5 109 11 105 14 105C17.6852 105 19 109 23.5 109" stroke="#848484" stroke-width="0.5"/>
<path d="M46.5 105C45.6667 106.333 44.1 109 40.5 109C36 109 35.5 105 32.5 105C28.8148 105 27.5 109 23 109" stroke="#848484" stroke-width="0.5"/>
<path d="M92.5 105C91.6667 106.333 90.1 109 86.5 109C82 109 81.5 105 78.5 105C74.8148 105 73.5 109 69 109" stroke="#848484" stroke-width="0.5"/>
<path d="M92 105C92.8333 106.333 94.4 109 98 109C102.5 109 103 105 106 105C109.685 105 111 109 115.5 109" stroke="#848484" stroke-width="0.5"/>
<path d="M138.5 105C137.667 106.333 136.1 109 132.5 109C128 109 127.5 105 124.5 105C120.815 105 119.5 109 115 109" stroke="#848484" stroke-width="0.5"/>
<path d="M138 105C138.833 106.333 140.4 109 144 109C148.5 109 149 105 152 105C155.685 105 157 109 161.5 109" stroke="#848484" stroke-width="0.5"/>
<path d="M184.5 105C183.667 106.333 182.1 109 178.5 109C174 109 173.5 105 170.5 105C166.815 105 165.5 109 161 109" stroke="#848484" stroke-width="0.5"/>
<path d="M184 105C184.833 106.333 186.4 109 190 109C194.5 109 195 105 198 105C201.685 105 203 109 207.5 109" stroke="#848484" stroke-width="0.5"/>
<path d="M230.5 105C229.667 106.333 228.1 109 224.5 109C220 109 219.5 105 216.5 105C212.815 105 211.5 109 207 109" stroke="#848484" stroke-width="0.5"/>
<path d="M230 105C230.833 106.333 232.4 109 236 109C240.5 109 241 105 244 105C247.685 105 249 109 253.5 109" stroke="#848484" stroke-width="0.5"/>
<path d="M276.5 105C275.667 106.333 274.1 109 270.5 109C266 109 265.5 105 262.5 105C258.815 105 257.5 109 253 109" stroke="#848484" stroke-width="0.5"/>
<path d="M276 105C276.833 106.333 278.4 109 282 109C286.5 109 287 105 290 105C293.685 105 295 109 299.5 109" stroke="#848484" stroke-width="0.5"/>
<path d="M46 105C46.8333 106.333 48.4 109 52 109C56.5 109 57 105 60 105C63.6852 105 65 109 69.5 109" stroke="#848484" stroke-width="0.5"/>
<path d="M46.5 105C45.6667 106.333 44.1 109 40.5 109C36 109 35.5 105 32.5 105C28.8148 105 27.5 109 23 109" stroke="#848484" stroke-width="0.5"/>
<path d="M0 5C0.833333 3.66667 2.4 1 6 1C10.5 1 11 5 14 5C17.6852 5 19 1 23.5 1" stroke="#848484" stroke-width="0.5"/>
<path d="M46.5 5C45.6667 3.66667 44.1 1 40.5 1C36 1 35.5 5 32.5 5C28.8148 5 27.5 1 23 1" stroke="#848484" stroke-width="0.5"/>
<path d="M92.5 5C91.6667 3.66667 90.1 1 86.5 1C82 1 81.5 5 78.5 5C74.8148 5 73.5 1 69 1" stroke="#848484" stroke-width="0.5"/>
<path d="M92 5C92.8333 3.66667 94.4 1 98 1C102.5 1 103 5 106 5C109.685 5 111 1 115.5 1" stroke="#848484" stroke-width="0.5"/>
<path d="M138.5 5C137.667 3.66667 136.1 1 132.5 1C128 1 127.5 5 124.5 5C120.815 5 119.5 1 115 1" stroke="#848484" stroke-width="0.5"/>
<path d="M138 5C138.833 3.66667 140.4 1 144 1C148.5 1 149 5 152 5C155.685 5 157 1 161.5 1" stroke="#848484" stroke-width="0.5"/>
<path d="M184.5 5C183.667 3.66667 182.1 1 178.5 1C174 1 173.5 5 170.5 5C166.815 5 165.5 1 161 1" stroke="#848484" stroke-width="0.5"/>
<path d="M184 5C184.833 3.66667 186.4 1 190 1C194.5 1 195 5 198 5C201.685 5 203 1 207.5 1" stroke="#848484" stroke-width="0.5"/>
<path d="M230.5 5C229.667 3.66667 228.1 1 224.5 1C220 1 219.5 5 216.5 5C212.815 5 211.5 1 207 1" stroke="#848484" stroke-width="0.5"/>
<path d="M230 5C230.833 3.66667 232.4 1 236 1C240.5 1 241 5 244 5C247.685 5 249 1 253.5 1" stroke="#848484" stroke-width="0.5"/>
<path d="M276.5 5C275.667 3.66667 274.1 1 270.5 1C266 1 265.5 5 262.5 5C258.815 5 257.5 1 253 1" stroke="#848484" stroke-width="0.5"/>
<path d="M276 5C276.833 3.66667 278.4 1 282 1C286.5 1 287 5 290 5C293.685 5 295 1 299.5 1" stroke="#848484" stroke-width="0.5"/>
<path d="M46 5C46.8333 3.66667 48.4 1 52 1C56.5 1 57 5 60 5C63.6852 5 65 1 69.5 1" stroke="#848484" stroke-width="0.5"/>
<path d="M46.5 5C45.6667 3.66667 44.1 1 40.5 1C36 1 35.5 5 32.5 5C28.8148 5 27.5 1 23 1" stroke="#848484" stroke-width="0.5"/>
</g>
<defs>
<clipPath id="clip0_1_2">
<rect width="300" height="110" fill="white"/>
</clipPath>
</defs>
</svg>
