<svg width="300" height="100" viewBox="0 0 300 100" fill="none" xmlns="http://www.w3.org/2000/svg">
<path fill-rule="evenodd" clip-rule="evenodd" d="M12.0011 6C11.2852 6 10.8012 6.73014 11.08 7.38946L21.9925 33.1969V34.4749C21.1455 35.1224 20.454 35.951 19.9811 36.9463C18.0544 41.0009 20.4835 46.2853 25.4066 48.7494C30.3297 51.2134 35.8826 49.924 37.8093 45.8695C39.7359 41.8149 37.3069 36.5305 32.3837 34.0664C30.0128 32.8797 27.4958 32.5636 25.3081 33.0076L24.4925 32.1706L16.9251 7.41533C16.6681 6.57438 15.8919 6 15.0125 6H12.0011ZM35.4925 39.3547C35.4925 39.6381 35.2686 39.8678 34.9925 39.8678C34.7164 39.8678 34.4925 39.6381 34.4925 39.3547C34.4925 39.0713 34.7164 38.8415 34.9925 38.8415C35.2686 38.8415 35.4925 39.0713 35.4925 39.3547ZM35.9925 41.9204C36.2686 41.9204 36.4925 41.6907 36.4925 41.4073C36.4925 41.1238 36.2686 40.8941 35.9925 40.8941C35.7164 40.8941 35.4925 41.1238 35.4925 41.4073C35.4925 41.6907 35.7164 41.9204 35.9925 41.9204ZM35.4925 44.4861C35.4925 44.7696 35.2686 44.9993 34.9925 44.9993C34.7164 44.9993 34.4925 44.7696 34.4925 44.4861C34.4925 44.2027 34.7164 43.973 34.9925 43.973C35.2686 43.973 35.4925 44.2027 35.4925 44.4861ZM33.9925 42.9467C34.2686 42.9467 34.4925 42.717 34.4925 42.4336C34.4925 42.1501 34.2686 41.9204 33.9925 41.9204C33.7164 41.9204 33.4925 42.1501 33.4925 42.4336C33.4925 42.717 33.7164 42.9467 33.9925 42.9467ZM32.4925 43.4598C32.4925 43.7433 32.2686 43.973 31.9925 43.973C31.7164 43.973 31.4925 43.7433 31.4925 43.4598C31.4925 43.1764 31.7164 42.9467 31.9925 42.9467C32.2686 42.9467 32.4925 43.1764 32.4925 43.4598ZM32.9925 40.8941C33.2686 40.8941 33.4925 40.6644 33.4925 40.381C33.4925 40.0976 33.2686 39.8678 32.9925 39.8678C32.7164 39.8678 32.4925 40.0976 32.4925 40.381C32.4925 40.6644 32.7164 40.8941 32.9925 40.8941ZM32.4925 38.3284C32.4925 38.6118 32.2686 38.8415 31.9925 38.8415C31.7164 38.8415 31.4925 38.6118 31.4925 38.3284C31.4925 38.045 31.7164 37.8152 31.9925 37.8152C32.2686 37.8152 32.4925 38.045 32.4925 38.3284ZM28.9925 38.8415C29.2686 38.8415 29.4925 38.6118 29.4925 38.3284C29.4925 38.045 29.2686 37.8152 28.9925 37.8152C28.7164 37.8152 28.4925 38.045 28.4925 38.3284C28.4925 38.6118 28.7164 38.8415 28.9925 38.8415ZM33.4925 46.5387C33.4925 46.8221 33.2686 47.0519 32.9925 47.0519C32.7164 47.0519 32.4925 46.8221 32.4925 46.5387C32.4925 46.2553 32.7164 46.0256 32.9925 46.0256C33.2686 46.0256 33.4925 46.2553 33.4925 46.5387ZM29.9925 43.973C30.2686 43.973 30.4925 43.7433 30.4925 43.4598C30.4925 43.1764 30.2686 42.9467 29.9925 42.9467C29.7164 42.9467 29.4925 43.1764 29.4925 43.4598C29.4925 43.7433 29.7164 43.973 29.9925 43.973ZM31.4925 45.5124C31.4925 45.7958 31.2686 46.0256 30.9925 46.0256C30.7164 46.0256 30.4925 45.7958 30.4925 45.5124C30.4925 45.229 30.7164 44.9993 30.9925 44.9993C31.2686 44.9993 31.4925 45.229 31.4925 45.5124ZM28.9925 48.0782C29.2686 48.0782 29.4925 47.8484 29.4925 47.565C29.4925 47.2816 29.2686 47.0519 28.9925 47.0519C28.7164 47.0519 28.4925 47.2816 28.4925 47.565C28.4925 47.8484 28.7164 48.0782 28.9925 48.0782ZM28.4925 45.5124C28.4925 45.7958 28.2686 46.0256 27.9925 46.0256C27.7164 46.0256 27.4925 45.7958 27.4925 45.5124C27.4925 45.229 27.7164 44.9993 27.9925 44.9993C28.2686 44.9993 28.4925 45.229 28.4925 45.5124ZM25.9925 47.0519C26.2686 47.0519 26.4925 46.8221 26.4925 46.5387C26.4925 46.2553 26.2686 46.0256 25.9925 46.0256C25.7164 46.0256 25.4925 46.2553 25.4925 46.5387C25.4925 46.8221 25.7164 47.0519 25.9925 47.0519ZM21.4925 40.381C21.4925 40.6644 21.2686 40.8941 20.9925 40.8941C20.7163 40.8941 20.4925 40.6644 20.4925 40.381C20.4925 40.0976 20.7163 39.8678 20.9925 39.8678C21.2686 39.8678 21.4925 40.0976 21.4925 40.381ZM21.9925 42.9467C22.2686 42.9467 22.4925 42.717 22.4925 42.4336C22.4925 42.1501 22.2686 41.9204 21.9925 41.9204C21.7163 41.9204 21.4925 42.1501 21.4925 42.4336C21.4925 42.717 21.7163 42.9467 21.9925 42.9467ZM23.4925 44.4861C23.4925 44.7696 23.2686 44.9993 22.9925 44.9993C22.7163 44.9993 22.4925 44.7696 22.4925 44.4861C22.4925 44.2027 22.7163 43.973 22.9925 43.973C23.2686 43.973 23.4925 44.2027 23.4925 44.4861ZM25.9925 44.9993C26.2686 44.9993 26.4925 44.7696 26.4925 44.4861C26.4925 44.2027 26.2686 43.973 25.9925 43.973C25.7164 43.973 25.4925 44.2027 25.4925 44.4861C25.4925 44.7696 25.7164 44.9993 25.9925 44.9993ZM25.4925 40.381C25.4925 40.6644 25.2686 40.8941 24.9925 40.8941C24.7164 40.8941 24.4925 40.6644 24.4925 40.381C24.4925 40.0976 24.7164 39.8678 24.9925 39.8678C25.2686 39.8678 25.4925 40.0976 25.4925 40.381ZM23.9925 42.9467C24.2686 42.9467 24.4925 42.717 24.4925 42.4336C24.4925 42.1501 24.2686 41.9204 23.9925 41.9204C23.7163 41.9204 23.4925 42.1501 23.4925 42.4336C23.4925 42.717 23.7163 42.9467 23.9925 42.9467ZM28.4925 40.381C28.4925 40.6644 28.2686 40.8941 27.9925 40.8941C27.7164 40.8941 27.4925 40.6644 27.4925 40.381C27.4925 40.0976 27.7164 39.8678 27.9925 39.8678C28.2686 39.8678 28.4925 40.0976 28.4925 40.381ZM26.9925 42.9467C27.2686 42.9467 27.4925 42.717 27.4925 42.4336C27.4925 42.1501 27.2686 41.9204 26.9925 41.9204C26.7164 41.9204 26.4925 42.1501 26.4925 42.4336C26.4925 42.717 26.7164 42.9467 26.9925 42.9467ZM31.4925 41.4073C31.4925 41.6907 31.2686 41.9204 30.9925 41.9204C30.7164 41.9204 30.4925 41.6907 30.4925 41.4073C30.4925 41.1238 30.7164 40.8941 30.9925 40.8941C31.2686 40.8941 31.4925 41.1238 31.4925 41.4073ZM29.9925 36.7889C30.2686 36.7889 30.4925 36.5592 30.4925 36.2758C30.4925 35.9924 30.2686 35.7626 29.9925 35.7626C29.7164 35.7626 29.4925 35.9924 29.4925 36.2758C29.4925 36.5592 29.7164 36.7889 29.9925 36.7889ZM27.4925 36.2758C27.4925 36.5592 27.2686 36.7889 26.9925 36.7889C26.7164 36.7889 26.4925 36.5592 26.4925 36.2758C26.4925 35.9924 26.7164 35.7626 26.9925 35.7626C27.2686 35.7626 27.4925 35.9924 27.4925 36.2758ZM24.9925 36.7889C25.2686 36.7889 25.4925 36.5592 25.4925 36.2758C25.4925 35.9924 25.2686 35.7626 24.9925 35.7626C24.7164 35.7626 24.4925 35.9924 24.4925 36.2758C24.4925 36.5592 24.7164 36.7889 24.9925 36.7889ZM25.4925 38.3284C25.4925 38.6118 25.2686 38.8415 24.9925 38.8415C24.7164 38.8415 24.4925 38.6118 24.4925 38.3284C24.4925 38.045 24.7164 37.8152 24.9925 37.8152C25.2686 37.8152 25.4925 38.045 25.4925 38.3284ZM22.9925 38.8415C23.2686 38.8415 23.4925 38.6118 23.4925 38.3284C23.4925 38.045 23.2686 37.8152 22.9925 37.8152C22.7163 37.8152 22.4925 38.045 22.4925 38.3284C22.4925 38.6118 22.7163 38.8415 22.9925 38.8415ZM23.4925 40.381C23.4925 40.6644 23.2686 40.8941 22.9925 40.8941C22.7163 40.8941 22.4925 40.6644 22.4925 40.381C22.4925 40.0976 22.7163 39.8678 22.9925 39.8678C23.2686 39.8678 23.4925 40.0976 23.4925 40.381Z" fill="#848484"/>
<path d="M282.649 32.9769C282.595 32.4013 282.165 31.7982 281.223 31.2225C280.29 30.6527 278.939 30.1659 277.247 29.8004C273.87 29.0707 269.246 28.8483 264.183 29.3213C259.121 29.7943 254.618 30.8695 251.434 32.2124C249.839 32.885 248.602 33.6135 247.791 34.3463C246.971 35.0867 246.661 35.759 246.714 36.3345C246.768 36.91 247.198 37.5132 248.14 38.0889C249.073 38.6587 250.424 39.1454 252.116 39.511C255.494 40.2407 260.118 40.4631 265.18 39.9901C270.243 39.517 274.745 38.4418 277.929 37.099C279.524 36.4264 280.761 35.6978 281.573 34.965C282.392 34.2247 282.703 33.5524 282.649 32.9769Z" stroke="#848484"/>
<mask id="path-3-inside-1_1_2" fill="white">
<path d="M250.361 80.7403C251.132 88.9886 258.444 95.0504 266.692 94.2797L273.752 93.62C282 92.8493 288.062 85.5379 287.292 77.2896L283.147 32.9304L246.217 36.3811L250.361 80.7403Z"/>
</mask>
<path d="M249.366 80.8333C250.188 89.6315 257.987 96.0975 266.785 95.2754L273.845 94.6157C282.643 93.7936 289.109 85.9948 288.287 77.1965L286.296 77.3826C287.015 85.0811 281.357 91.905 273.659 92.6244L266.599 93.2841C258.9 94.0034 252.076 88.3457 251.357 80.6472L249.366 80.8333ZM283.147 32.9304L246.217 36.3811L283.147 32.9304ZM245.221 36.4741L249.366 80.8333C250.188 89.6315 257.987 96.0975 266.785 95.2754L266.599 93.2841C258.9 94.0034 252.076 88.3457 251.357 80.6472L247.212 36.288L245.221 36.4741ZM273.845 94.6157C282.643 93.7936 289.109 85.9948 288.287 77.1965L284.142 32.8373L282.151 33.0234L286.296 77.3826C287.015 85.0811 281.357 91.905 273.659 92.6244L273.845 94.6157Z" fill="#848484" mask="url(#path-3-inside-1_1_2)"/>
<mask id="path-5-inside-2_1_2" fill="white">
<path d="M252.029 78.6473C252.748 86.3457 259.572 92.0034 267.27 91.2841L272.629 90.7834C280.327 90.0641 285.985 83.2401 285.266 75.5416L281.482 35.0469L248.245 38.1526L252.029 78.6473Z"/>
</mask>
<path d="M251.033 78.7403C251.804 86.9886 259.115 93.0505 267.363 92.2797L272.722 91.7791C280.97 91.0083 287.032 83.697 286.261 75.4486L284.27 75.6347C284.938 82.7832 279.684 89.1198 272.536 89.7877L267.177 90.2884C260.029 90.9564 253.692 85.7028 253.024 78.5542L251.033 78.7403ZM281.482 35.0469L248.245 38.1526L281.482 35.0469ZM247.249 38.2456L251.033 78.7403C251.804 86.9886 259.115 93.0505 267.363 92.2797L267.177 90.2884C260.029 90.9564 253.692 85.7028 253.024 78.5542L249.24 38.0595L247.249 38.2456ZM272.722 91.7791C280.97 91.0083 287.032 83.697 286.261 75.4486L282.477 34.9539L280.486 35.14L284.27 75.6347C284.938 82.7832 279.684 89.1198 272.536 89.7877L272.722 91.7791Z" fill="#848484" mask="url(#path-5-inside-2_1_2)"/>
<path d="M246.77 37.7121L246.569 35.5564L238.962 38.6874L247.583 46.4114L246.77 37.7121Z" stroke="#848484"/>
<path d="M239.474 38.9721L246.353 37.8391L246.126 35.409L239.474 38.9721Z" fill="#848484"/>
<path d="M282.982 56.4783C282.926 55.88 282.522 55.272 281.68 54.6964C280.841 54.1231 279.628 53.627 278.106 53.2477C275.068 52.4902 270.911 52.2252 266.363 52.6502C261.815 53.0751 257.779 54.1057 254.934 55.4129C253.509 56.0675 252.409 56.7797 251.69 57.4986C250.969 58.2203 250.685 58.8926 250.741 59.4908C250.797 60.0891 251.201 60.6971 252.043 61.2727C252.882 61.846 254.095 62.3421 255.617 62.7214C258.655 63.4789 262.812 63.7439 267.36 63.3189C271.908 62.8939 275.944 61.8634 278.789 60.5562C280.214 59.9016 281.314 59.1894 282.032 58.4705C282.754 57.7488 283.038 57.0765 282.982 56.4783Z" stroke="#848484"/>
<path d="M264.212 39.6021L266.059 39.4296L267.608 56.003C267.655 56.5129 267.281 56.9649 266.771 57.0125V57.0125C266.261 57.0602 265.809 56.6854 265.761 56.1755L264.212 39.6021Z" fill="#848484"/>
<path fill-rule="evenodd" clip-rule="evenodd" d="M286.688 40.9339L283.964 41.6787L284.464 47.0249L286.265 46.3663L288.717 72.6112L290.654 73.4107L292.41 72.2662L289.867 45.0492L289.867 45.0492L289.594 42.1331L286.688 40.9339Z" fill="#848484"/>
<path fill-rule="evenodd" clip-rule="evenodd" d="M268.844 18.2894C269.103 18.0157 269.256 17.723 269.339 17.406C268.087 18.2004 265.837 18.8594 263.228 19.1031C260.62 19.3468 258.286 19.1163 256.909 18.5674C257.05 18.8635 257.254 19.1228 257.559 19.3439C258.314 19.8918 259.909 20.3699 263.317 20.0515C266.725 19.7331 268.204 18.9677 268.844 18.2894ZM262.485 21.1178C256.398 21.4709 255.783 19.1552 255.615 17.3632C255.44 15.4842 258.695 14.6241 262.774 14.243C266.853 13.8618 270.212 14.104 270.387 15.9829L270.387 15.9829C270.555 17.775 270.379 20.1645 264.332 20.9452L265.519 33.6462C265.566 34.1561 265.192 34.608 264.682 34.6557C264.172 34.7033 263.72 34.3286 263.672 33.8187L262.485 21.1178ZM269.366 16.0783C269.341 16.1165 269.295 16.175 269.211 16.2543C268.98 16.4713 268.577 16.7285 267.985 16.9867C266.811 17.4985 265.099 17.924 263.135 18.1075C261.172 18.2909 259.411 18.1899 258.162 17.9045C257.532 17.7606 257.089 17.5823 256.822 17.4118C256.724 17.3496 256.668 17.3006 256.636 17.2678C256.661 17.2296 256.708 17.1711 256.792 17.0918C257.023 16.8748 257.425 16.6176 258.018 16.3594C259.192 15.8476 260.904 15.4221 262.867 15.2386C264.831 15.0552 266.592 15.1562 267.841 15.4416C268.471 15.5855 268.913 15.7638 269.181 15.9343C269.278 15.9965 269.335 16.0455 269.366 16.0783Z" fill="#848484"/>
<path d="M247.166 91.0054C247.108 90.3822 247.422 89.8096 248.116 89.3327C248.817 88.8512 249.858 88.5106 251.077 88.3967C252.295 88.2829 253.381 88.4247 254.16 88.768C254.931 89.108 255.345 89.6126 255.403 90.2358C255.426 90.4821 255.324 90.7834 255.028 91.1343C254.735 91.4829 254.288 91.8333 253.734 92.1544C252.626 92.7971 251.189 93.2651 249.99 93.3771C248.803 93.488 248.176 93.2223 247.816 92.8495C247.435 92.4546 247.244 91.8333 247.166 91.0054Z" fill="#D7D7D7" stroke="#848484"/>
<path d="M247.148 91.2032C248.102 91.441 248.669 92.5319 251.764 90.7719" stroke="#848484" stroke-width="0.5"/>
<path d="M255.467 94.681C255.525 95.3042 255.939 95.8088 256.71 96.1487C257.488 96.492 258.575 96.6339 259.793 96.52C261.011 96.4062 262.052 96.0656 262.754 95.584C263.448 95.1071 263.762 94.5345 263.704 93.9113C263.681 93.665 263.524 93.3879 263.169 93.0978C262.816 92.8096 262.312 92.548 261.708 92.3351C260.5 91.9089 259.001 91.7153 257.802 91.8272C256.615 91.9382 256.049 92.3153 255.764 92.7484C255.462 93.2072 255.389 93.8531 255.467 94.681Z" fill="#D7D7D7" stroke="#848484"/>
<path d="M255.345 93.9489C255.835 94.382 257.573 93.7408 259.443 94.5238" stroke="#848484" stroke-width="0.5"/>
<path d="M281.213 91.3176C281.271 91.9408 281.685 92.4454 282.456 92.7853C283.235 93.1286 284.321 93.2705 285.539 93.1566C286.757 93.0428 287.798 92.7022 288.5 92.2206C289.194 91.7437 289.508 91.1711 289.45 90.5479C289.427 90.3016 289.27 90.0245 288.915 89.7344C288.562 89.4462 288.058 89.1846 287.454 88.9717C286.246 88.5455 284.747 88.3518 283.548 88.4638C282.361 88.5748 281.795 88.9519 281.51 89.385C281.208 89.8438 281.135 90.4897 281.213 91.3176Z" fill="#D7D7D7" stroke="#848484"/>
<path d="M281.158 91.1265C282.051 90.7162 282.407 89.5391 285.775 90.6952" stroke="#848484" stroke-width="0.5"/>
<path d="M142.315 35.4408L146.884 37.5664L129.231 74.2987C128.754 75.2906 127.563 75.717 126.565 75.2529L126.125 75.048C125.129 74.5849 124.699 73.4086 125.161 72.4127L142.315 35.4408Z" fill="#848484"/>
<path d="M148.574 7.91438L164.662 15.6317C165.997 16.272 166.477 17.922 165.695 19.1808L153.628 38.6012C152.956 39.6821 151.578 40.0934 150.426 39.5571L138.869 34.1813C137.713 33.6435 137.154 32.3249 137.57 31.121L145.105 9.35912C145.596 7.94219 147.221 7.26539 148.574 7.91438Z" stroke="#848484"/>
<path d="M132.996 47.1451L111.945 13.4075C110.794 11.5625 107.036 7.74159 103.5 5.108C97.3963 0.562543 115.089 40.4589 121.161 49.1239C124.515 53.9105 120.891 47.8183 129.086 49.5847" stroke="#848484"/>
<path d="M149.999 70.9059L133.388 46.9006L128.464 49.4816L141.842 69.9349L143.501 74.4554L147.108 73.7199L149.999 70.9059Z" fill="#848484"/>
<ellipse rx="0.833792" ry="0.923993" transform="matrix(-0.529354 -0.848401 -0.848401 0.529354 137.166 57.3194)" fill="#D9D9D9"/>
<ellipse rx="0.833792" ry="0.923993" transform="matrix(-0.529354 -0.848401 -0.848401 0.529354 144.228 68.6377)" fill="#D9D9D9"/>
<path d="M12.3751 70.6229C12.5008 69.5836 13.3378 68.4233 14.9845 67.2166C16.6375 66.0054 19.0157 64.8151 22.0035 63.714C27.9748 61.5136 36.2937 59.7013 45.8836 58.7674C55.4791 57.8329 63.7277 57.9071 69.8816 58.9251C72.9594 59.4342 75.4917 60.1759 77.4009 61.1313C79.278 62.0705 80.5096 63.1939 81.1015 64.4636C81.4907 68.5324 81.4322 73.4571 77.3974 77.7841C73.3096 82.1677 65.0495 86.038 48.6946 87.6308C32.3436 89.2232 23.4819 86.8962 18.6131 83.2628C13.7896 79.6631 12.7764 74.6987 12.3751 70.6229Z" stroke="#848484"/>
<path d="M12.4185 71.069C12.3171 70.0282 12.9923 68.8381 14.6095 67.5631C16.2053 66.305 18.6037 65.0595 21.6498 63.9055C27.7351 61.6003 36.2952 59.7012 45.8836 58.7673C55.4721 57.8335 64.2378 58.0453 70.6535 59.1332C73.865 59.6777 76.4587 60.4371 78.2673 61.3636C80.1001 62.3026 80.9922 63.3401 81.0936 64.3809C81.1949 65.4217 80.5197 66.6118 78.9026 67.8868C77.3068 69.1449 74.9083 70.3904 71.8622 71.5444C65.777 73.8497 57.2169 75.7488 47.6284 76.6826C38.0399 77.6164 29.2742 77.4046 22.8585 76.3168C19.647 75.7722 17.0533 75.0129 15.2448 74.0863C13.412 73.1473 12.5198 72.1099 12.4185 71.069Z" stroke="#848484"/>
<path d="M22.9045 75.5739C22.8997 75.5251 22.9172 75.382 23.1789 75.1329C23.4326 74.8915 23.8461 74.6203 24.4327 74.3305C25.6007 73.7537 27.3431 73.1574 29.547 72.5812C33.947 71.4308 40.0968 70.383 46.9499 69.7156C53.803 69.0481 60.0393 68.8897 64.5786 69.1695C66.8523 69.3097 68.677 69.5586 69.9344 69.8992C70.5659 70.0703 71.024 70.2567 71.3194 70.4446C71.6242 70.6385 71.669 70.7756 71.6738 70.8243C71.6785 70.873 71.661 71.0162 71.3993 71.2652C71.1457 71.5066 70.7322 71.7779 70.1456 72.0676C68.9775 72.6445 67.2351 73.2407 65.0312 73.817C60.6312 74.9674 54.4815 76.0152 47.6284 76.6826C40.7753 77.35 34.5389 77.5085 29.9996 77.2286C27.726 77.0884 25.9013 76.8396 24.6439 76.4989C24.0124 76.3278 23.5543 76.1415 23.2589 75.9535C22.954 75.7596 22.9092 75.6226 22.9045 75.5739Z" stroke="#848484"/>
<path d="M80.8523 67.0618L79.553 69.4735L80.2032 71.9081L119.441 60.8957C120.501 60.5983 121.128 59.499 120.844 58.4357L120.725 57.9912C120.439 56.9208 119.339 56.2932 118.272 56.5918L80.8523 67.0618Z" fill="#848484"/>
<ellipse rx="0.362314" ry="1.33053" transform="matrix(0.258016 0.966141 0.966141 -0.258016 116.521 58.0792)" fill="#D9D9D9"/>
<path d="M235.064 16.3054C235.08 14.0594 233.759 11.8421 231.374 10.0634C228.985 8.28254 225.573 6.98078 221.556 6.5896C213.484 5.80348 207.722 8.62558 206.378 14.0195C205.986 18.0643 205.738 22.9709 207.26 27.0268C208.018 29.0481 209.213 30.8473 211.046 32.2254C212.879 33.6043 215.383 34.5854 218.797 34.9179C222.208 35.2501 224.855 34.7414 226.923 33.6989C228.992 32.6564 230.519 31.0617 231.661 29.1619C233.955 25.3472 234.669 20.3523 235.064 16.3054Z" stroke="#848484"/>
<path d="M235.019 16.7722C235.246 14.4408 233.95 12.1086 231.511 10.2279C229.079 8.35226 225.569 6.98039 221.556 6.5896C217.543 6.1988 213.835 6.86767 211.086 8.23882C208.331 9.61358 206.609 11.6519 206.382 13.9833C206.155 16.3147 207.451 18.647 209.89 20.5276C212.322 22.4032 215.832 23.7751 219.844 24.1659C223.857 24.5567 227.566 23.8878 230.314 22.5167C233.07 21.1419 234.792 19.1036 235.019 16.7722Z" stroke="#848484"/>
<path d="M227.356 23.0033C227.368 22.8775 227.31 22.6657 226.995 22.3719C226.688 22.0844 226.199 21.7833 225.543 21.4973C224.235 20.9277 222.366 20.4638 220.248 20.2576C218.131 20.0514 216.207 20.1459 214.814 20.4525C214.115 20.6064 213.578 20.8077 213.22 21.0304C212.855 21.258 212.756 21.4544 212.744 21.5803C212.732 21.7061 212.791 21.9179 213.105 22.2117C213.413 22.4992 213.901 22.8003 214.558 23.0863C215.865 23.6559 217.735 24.1198 219.852 24.326C221.97 24.5322 223.893 24.4377 225.286 24.1311C225.986 23.9772 226.523 23.7759 226.88 23.5532C227.245 23.3256 227.344 23.1292 227.356 23.0033Z" stroke="#848484"/>
<path d="M206.056 16.5613L206.486 18.8474L206.075 21.2605L190.729 13.1185C189.758 12.6031 189.124 11.3189 189.308 10.2385L189.364 9.90906C189.551 8.81288 190.507 8.34376 191.493 8.86482L206.056 16.5613Z" fill="#848484"/>
<ellipse rx="0.351952" ry="0.597638" transform="matrix(-0.167781 0.985824 -0.895235 -0.445594 191.181 9.70253)" fill="#D9D9D9"/>
<path d="M200.367 67.8184C202.278 72.874 205.509 82.4847 207.643 83.4706C210.029 84.5723 214.944 83.6565 216.773 81.7697C218.236 80.2602 218.618 69.572 218.626 64.4166M200.367 67.8184C205.159 64.3514 211.659 62.8514 218.626 64.4166M200.367 67.8184C203.877 68.4531 212.441 68.6613 218.626 64.4166" stroke="#848484" stroke-width="0.5"/>
<path d="M218.73 68.8747C219.15 68.528 220.3 67.9381 221.539 68.3513C223.089 68.8679 220.325 77.4357 217.661 78.7373" stroke="#848484" stroke-width="0.5"/>
<path d="M218.638 69.9259C218.83 69.7175 218.908 70.0927 219.486 69.7679C222.242 68.2205 219.173 75.5219 217.929 76.2717" stroke="#848484" stroke-width="0.5"/>
<path d="M124.916 79.8184C123.005 84.874 119.774 94.4847 117.64 95.4706C115.255 96.5723 110.339 95.6565 108.51 93.7697C107.048 92.2602 106.665 81.572 106.657 76.4166M124.916 79.8184C120.125 76.3514 113.625 74.8514 106.657 76.4166M124.916 79.8184C121.407 80.4531 112.842 80.6613 106.657 76.4166" stroke="#848484" stroke-width="0.5"/>
<path d="M106.553 80.8747C106.133 80.528 104.984 79.9381 103.744 80.3513C102.194 80.8679 104.958 89.4357 107.622 90.7373" stroke="#848484" stroke-width="0.5"/>
<path d="M106.645 81.9259C106.453 81.7175 106.376 82.0927 105.797 81.7679C103.042 80.2205 106.11 87.5219 107.355 88.2717" stroke="#848484" stroke-width="0.5"/>
<path d="M25 94.5C21.8333 90.6667 13.8 83.8 7 87C-1.5 91 11.5 97 25 94.5Z" stroke="#848484" stroke-width="0.5"/>
<path d="M24.5 94.5C19.8333 93.6667 9.4 91.2 5 88" stroke="#848484" stroke-width="0.5"/>
<path d="M5 88C4.33333 87.6667 3 86.8 3 86" stroke="#848484" stroke-width="0.5"/>
<path d="M22 90C20.5455 90.8889 17.3091 93.3333 16 96" stroke="#848484" stroke-width="0.5"/>
<path d="M24 92C23.3333 92 20.6667 93.6 20 96" stroke="#848484" stroke-width="0.5"/>
<path d="M19 88C17.1538 88.8485 12.9692 91.4364 11 95" stroke="#848484" stroke-width="0.5"/>
<path d="M17 87C14.3333 87.6667 9 90.2 9 95" stroke="#848484" stroke-width="0.5"/>
<path d="M14.5 86C11 86.8333 4.2 89.4 5 93" stroke="#848484" stroke-width="0.5"/>
<path d="M169 37.5C172.167 33.6667 180.2 26.8 187 30C195.5 34 182.5 40 169 37.5Z" stroke="#848484" stroke-width="0.5"/>
<path d="M169.5 37.5C174.167 36.6667 184.6 34.2 189 31" stroke="#848484" stroke-width="0.5"/>
<path d="M189 31C189.667 30.6667 191 29.8 191 29" stroke="#848484" stroke-width="0.5"/>
<path d="M172 33C173.455 33.8889 176.691 36.3333 178 39" stroke="#848484" stroke-width="0.5"/>
<path d="M170 35C170.667 35 173.333 36.6 174 39" stroke="#848484" stroke-width="0.5"/>
<path d="M175 31C176.846 31.8485 181.031 34.4364 183 38" stroke="#848484" stroke-width="0.5"/>
<path d="M177 30C179.667 30.6667 185 33.2 185 38" stroke="#848484" stroke-width="0.5"/>
<path d="M179.5 29C183 29.8333 189.8 32.4 189 36" stroke="#848484" stroke-width="0.5"/>
<path d="M221 91.5C224.167 87.6667 232.2 80.8 239 84C247.5 88 234.5 94 221 91.5Z" stroke="#848484" stroke-width="0.5"/>
<path d="M221.5 91.5C226.167 90.6667 236.6 88.2 241 85" stroke="#848484" stroke-width="0.5"/>
<path d="M241 85C241.667 84.6667 243 83.8 243 83" stroke="#848484" stroke-width="0.5"/>
<path d="M224 87C225.455 87.8889 228.691 90.3333 230 93" stroke="#848484" stroke-width="0.5"/>
<path d="M222 89C222.667 89 225.333 90.6 226 93" stroke="#848484" stroke-width="0.5"/>
<path d="M227 85C228.846 85.8485 233.031 88.4364 235 92" stroke="#848484" stroke-width="0.5"/>
<path d="M229 84C231.667 84.6667 237 87.2 237 92" stroke="#848484" stroke-width="0.5"/>
<path d="M231.5 83C235 83.8333 241.8 86.4 241 90" stroke="#848484" stroke-width="0.5"/>
<rect x="158.013" y="71.8748" width="22" height="22" rx="1.5" transform="rotate(-26.6316 158.013 71.8748)" stroke="#848484"/>
<rect x="156.336" y="71.3177" width="24.5" height="24.5" rx="1.75" transform="rotate(-26.6316 156.336 71.3177)" stroke="#848484" stroke-width="0.5"/>
<path d="M160.477 75.6732L162.036 69.8577L166.505 67.6164L162.72 81.2608L165.409 86.6243L170.528 65.5993L174.551 63.5821L168.098 90.8697L169.216 90.8684L172.791 89.0754L178.352 63.3541L181.041 68.7176L177.261 86.8341L181.73 84.5928L183.731 74.081" stroke="#848484" stroke-width="0.5"/>
<path d="M179.249 66.26L173.657 64.0304L169.187 66.2716L182.386 71.3993L185.075 76.7627L165.164 68.2888L161.142 70.3059L186.87 81.4564L186.2 82.3516L182.624 84.1446L158.686 73.2156L161.375 78.5791L178.155 86.3858L173.685 88.6271L164.065 83.9425" stroke="#848484" stroke-width="0.5"/>
<path d="M100.841 33.6117C100.841 33.6117 100.84 33.6104 100.837 33.6079C100.839 33.6105 100.841 33.6117 100.841 33.6117ZM100.383 33.631C100.491 33.5831 100.577 33.5387 100.644 33.4991C100.573 33.4682 100.482 33.4348 100.369 33.4005C99.9254 33.2656 99.2596 33.1512 98.4058 33.0702C96.7063 32.909 94.3528 32.8879 91.7522 33.0493C89.1517 33.2108 86.8188 33.523 85.1523 33.8932C84.3152 34.0792 83.6686 34.275 83.245 34.4639C83.1375 34.5118 83.0515 34.5561 82.9842 34.5957C83.0559 34.6267 83.1467 34.6601 83.2593 34.6943C83.703 34.8293 84.3688 34.9436 85.2226 35.0246C86.9221 35.1858 89.2756 35.207 91.8762 35.0455C94.4768 34.884 96.8096 34.5719 98.4761 34.2016C99.3133 34.0156 99.9598 33.8198 100.383 33.631ZM82.803 34.7317C82.8032 34.7317 82.8044 34.7303 82.8062 34.7275C82.8038 34.7303 82.8029 34.7317 82.803 34.7317ZM82.7876 34.4831C82.7874 34.4832 82.7885 34.4844 82.7913 34.4869C82.7891 34.4844 82.7877 34.4831 82.7876 34.4831ZM100.822 33.3673C100.825 33.3645 100.826 33.3631 100.825 33.3631C100.825 33.3631 100.824 33.3645 100.822 33.3673Z" stroke="#848484"/>
<path d="M86.951 28.3378L95.9337 27.7801C98.4142 27.626 100.55 29.512 100.704 31.9925L102.687 63.931C102.841 66.4115 100.955 68.5472 98.4747 68.7013L89.492 69.259C87.0115 69.4131 84.8758 67.5271 84.7217 65.0466L82.7385 33.1081C82.5845 30.6276 84.4705 28.4919 86.951 28.3378Z" stroke="#848484"/>
<path d="M88.4514 26.6691L88.4477 26.391C88.4453 26.2195 88.4254 26.0487 88.3881 25.8813L87.3442 21.1963C87.153 20.3382 87.7373 19.5005 88.6085 19.3834L90.7781 19.0919C90.849 19.0823 90.9206 19.0779 90.9922 19.0786L93.1812 19.0995C94.0602 19.1079 94.7436 19.8669 94.6601 20.742L94.1992 25.5688C94.1867 25.6993 94.1845 25.8305 94.1926 25.9614L94.2189 26.3837C94.2702 27.2105 93.6415 27.9224 92.8147 27.9737L91.4424 28.059L90.0443 28.1458C89.189 28.1989 88.4631 27.5259 88.4514 26.6691Z" stroke="#848484"/>
<path d="M88.1745 13.9933C88.0797 13.4465 88.4483 12.9271 88.9957 12.836L90.3799 12.6057C90.4476 12.5944 90.5163 12.5902 90.5849 12.593L91.987 12.6503C92.5414 12.6729 92.9714 13.1427 92.945 13.6971L92.721 18.3966L92.7327 18.5858C92.7969 19.6193 92.0111 20.5092 90.9775 20.5734V20.5734V20.5734C89.9164 20.6393 89.0118 19.8129 88.9816 18.7502L88.9802 18.6983C88.9788 18.6522 88.9742 18.6062 88.9664 18.5608L88.1745 13.9933Z" fill="#848484"/>
<path d="M95.5458 37.6682L101.035 37.3274L102.408 59.4397L96.9188 59.7805C95.5408 59.8661 94.3543 58.8183 94.2687 57.4403L93.2055 40.3184C93.1199 38.9403 94.1677 37.7538 95.5458 37.6682Z" stroke="#848484"/>
</svg>
