<svg width="100" height="100" viewBox="0 0 100 100" fill="none" xmlns="http://www.w3.org/2000/svg">
<g clip-path="url(#clip0_0_3)">
<rect width="100" height="100" fill="#CEEAF0" fill-opacity="0.5"/>
<path d="M98 49C98 75.5097 76.5097 97 50 97C23.4903 97 2 75.5097 2 49C2 22.4903 23.4903 1 50 1C76.5097 1 98 22.4903 98 49Z" fill="#9FBBC1"/>
<path d="M86.85 -1.73525C84.5194 -4.63922 79.8605 -8.21302 79.8696 0.723468C79.8787 9.65996 75.2198 6.08615 72.8891 3.18219C70.5585 0.278224 65.8996 -3.29558 65.9087 5.64091C65.9178 14.5774 61.2589 11.0036 58.9283 8.09963C56.5976 5.19567 51.9387 1.62186 51.9478 10.5584C51.9569 19.4948 47.298 15.921 44.9674 13.0171C42.6368 10.1131 37.9778 6.53931 37.9869 15.4758C37.996 24.4123 33.3371 20.8385 31.0065 17.9345C28.6759 15.0306 24.0169 11.4567 24.026 20.3932C24.0351 29.3297 19.3762 25.7559 17.0456 22.8519C14.715 19.948 10.056 16.3742 10.0651 25.3107C10.0742 34.2472 5.41529 30.6734 3.08468 27.7694C0.754073 24.8654 -3.90487 21.2916 -3.89577 30.2281" stroke="#8EA7AC" stroke-width="4"/>
<path d="M1.13393 101.379C3.6124 104.231 8.65578 107.669 9.00155 98.6078C9.34732 89.5463 14.3907 92.9847 16.8692 95.8366C19.3476 98.6885 24.391 102.127 24.7368 93.0654C25.0826 84.0039 30.1259 87.4423 32.6044 90.2942C35.0829 93.1461 40.1263 96.5845 40.472 87.523C40.8178 78.4615 45.8612 81.8999 48.3397 84.7518C50.8181 87.6036 55.8615 91.042 56.2073 81.9806C56.553 72.9191 61.5964 76.3575 64.0749 79.2093C66.5534 82.0612 71.5967 85.4996 71.9425 76.4381C72.2883 67.3766 77.3317 70.815 79.8101 73.6669C82.2886 76.5188 87.332 79.9572 87.6778 70.8957C88.0235 61.8342 93.0669 65.2726 95.5454 68.1245C98.0239 70.9764 103.067 74.4148 103.413 65.3533" stroke="#8EA7AC" stroke-width="4"/>
<path d="M12 17C12 18.6569 10.6569 20 9 20C7.34315 20 6 18.6569 6 17C6 15.3431 7.34315 14 9 14C10.6569 14 12 15.3431 12 17Z" fill="#858F91" fill-opacity="0.8"/>
<path d="M98 6C98 7.65685 96.6569 9 95 9C93.3431 9 92 7.65685 92 6C92 4.34315 93.3431 3 95 3C96.6569 3 98 4.34315 98 6Z" fill="#6F7678" fill-opacity="0.8"/>
<path d="M15 79C15 80.6569 13.6569 82 12 82C10.3431 82 9 80.6569 9 79C9 77.3431 10.3431 76 12 76C13.6569 76 15 77.3431 15 79Z" fill="#516063" fill-opacity="0.8"/>
<path d="M89 94C89 95.6569 87.6569 97 86 97C84.3431 97 83 95.6569 83 94C83 92.3431 84.3431 91 86 91C87.6569 91 89 92.3431 89 94Z" fill="#33565E" fill-opacity="0.8"/>
<path d="M48 56C48 57.6569 46.6569 59 45 59C43.3431 59 42 57.6569 42 56C42 54.3431 43.3431 53 45 53C46.6569 53 48 54.3431 48 56Z" fill="#436D76" fill-opacity="0.8"/>
<path d="M32.0704 44.63C32.009 43.5195 32.8449 42.5629 33.9536 42.475V42.475C35.0624 42.3871 36.0386 43.2 36.1528 44.3063L39.955 81.1224C40.124 82.7589 38.9126 84.2136 37.2725 84.3436V84.3436C35.6325 84.4736 34.207 83.2279 34.1161 81.5853L32.0704 44.63Z" fill="white"/>
<path fill-rule="evenodd" clip-rule="evenodd" d="M28.1 31.9045L26.1063 32.0625L26.7385 40.0375C26.9567 42.7903 29.3652 44.845 32.1179 44.6268L36.1054 44.3107C38.8582 44.0925 40.9129 41.684 40.6947 38.9312L40.0625 30.9562L38.0688 31.1143L38.2071 32.8588C38.2507 33.4093 37.8398 33.891 37.2892 33.9347C36.7387 33.9783 36.257 33.5674 36.2133 33.0168L36.075 31.2723L34.0813 31.4303L34.2196 33.1749C34.2632 33.7254 33.8523 34.2071 33.3017 34.2508C32.7512 34.2944 32.2695 33.8835 32.2258 33.3329L32.0875 31.5884L30.0938 31.7464L30.2321 33.491C30.2757 34.0415 29.8648 34.5232 29.3142 34.5669C28.7637 34.6105 28.282 34.1996 28.2383 33.649L28.1 31.9045Z" fill="white"/>
<path d="M25.2951 18.8351C25.2696 18.4196 25.5818 18.0602 25.9969 18.0273V18.0273C26.4119 17.9944 26.7768 18.3001 26.8171 18.7145L28.1 31.9045L26.1063 32.0625L25.2951 18.8351Z" fill="white"/>
<path d="M29.2826 18.5191C29.2571 18.1035 29.5693 17.7441 29.9844 17.7112V17.7112C30.3994 17.6783 30.7643 17.984 30.8046 18.3984L32.0875 31.5884L30.0938 31.7464L29.2826 18.5191Z" fill="white"/>
<path d="M33.2701 18.203C33.2446 17.7874 33.5568 17.428 33.9719 17.3951V17.3951C34.3869 17.3622 34.7518 17.6679 34.7921 18.0823L36.075 31.2723L34.0813 31.4303L33.2701 18.203Z" fill="white"/>
<path d="M37.2576 17.8869C37.2321 17.4713 37.5443 17.1119 37.9593 17.079V17.079C38.3744 17.0461 38.7393 17.3518 38.7796 17.7662L40.0625 30.9562L38.0688 31.1143L37.2576 17.8869Z" fill="white"/>
<path d="M66.0931 44.3852C66.2073 43.2789 67.1835 42.4659 68.2922 42.5538V42.5538C69.4009 42.6416 70.2369 43.5982 70.1755 44.7087L68.1313 81.6641C68.0405 83.3067 66.615 84.5525 64.975 84.4225V84.4225C63.335 84.2926 62.1235 82.8379 62.2924 81.2015L66.0931 44.3852Z" fill="white"/>
<ellipse cx="69.2005" cy="31.0897" rx="8" ry="13.5" transform="rotate(4.53 69.2005 31.0897)" fill="white"/>
<path d="M35.7664 67.4931C36.5305 67.3997 37.1091 68.1686 36.8079 68.877L32.7411 78.4406C32.4399 79.149 31.4847 79.2656 31.0218 78.6505L24.773 70.3468C24.3101 69.7318 24.6866 68.8462 25.4507 68.7529L35.7664 67.4931Z" fill="#78D6EC" fill-opacity="0.8"/>
<path d="M81.1821 32.2413C81.8031 32.6962 81.6989 33.6528 80.9944 33.9632L74.6544 36.7569C73.95 37.0673 73.1737 36.4987 73.2571 35.7334L74.0077 28.846C74.0911 28.0807 74.9716 27.6927 75.5927 28.1476L81.1821 32.2413Z" fill="#A7EFFF" fill-opacity="0.8"/>
</g>
<defs>
<clipPath id="clip0_0_3">
<rect width="100" height="100" fill="white"/>
</clipPath>
</defs>
</svg>
